<svg xmlns="http://www.w3.org/2000/svg" viewBox="0 0 32 32">
  <path d="M5.21875 4L5.3125 5.09375L7.0625 24.875L7.125 25.5625L7.78125 25.75L15.71875 27.96875L15.96875 28.03125L16.25 27.96875L24.1875 25.78125L24.84375 25.59375L24.90625 24.90625L26.6875 5.09375L26.78125 4.03125L25.6875 4.03125L6.3125 4 Z M 7.40625 6L24.59375 6.03125L22.96875 24.03125L16 25.96875L9 24.03125 Z M 9.8125 9L10.46875 16.46875L19.03125 16.46875L18.75 19.6875L16 20.4375L15.96875 20.4375L13.21875 19.6875L13.0625 17.625L10.5625 17.625L10.90625 21.59375L15.96875 23L16 23L21.0625 21.59375L21.75 14L12.71875 14L12.5 11.46875L21.96875 11.46875L22.1875 9Z" fill="#EE513B" />
</svg>