<svg xmlns="http://www.w3.org/2000/svg" viewBox="0 0 183.38 176.45"><defs><style>.cls-1{fill:#ee513b;}.cls-1,.cls-2,.cls-3{stroke:#fff;stroke-miterlimit:10;stroke-width:3px;}.cls-2{fill:#272a31;}.cls-3{fill:#fdfeff;}</style></defs><g id="Layer_2" data-name="Layer 2"><g id="Layer_1-2" data-name="Layer 1"><circle class="cls-1" cx="92.63" cy="15.16" r="13.66"/><circle class="cls-2" cx="147.43" cy="35.63" r="13.66"/><circle class="cls-1" cx="168.21" cy="87.91" r="13.66"/><circle class="cls-2" cx="147.43" cy="140.19" r="13.66"/><circle class="cls-1" cx="92.63" cy="161.29" r="13.66"/><circle class="cls-2" cx="35.95" cy="140.19" r="13.66"/><circle class="cls-1" cx="15.16" cy="87.91" r="13.66"/><path class="cls-2" d="M52.36,35.63A13.66,13.66,0,1,1,47.75,25.4,13.66,13.66,0,0,1,52.36,35.63Z"/><polygon class="cls-3" points="116.72 108.85 73.58 108.85 73.58 87.91 73.58 67.6 116.72 67.6 116.72 108.85"/><line class="cls-1" x1="19.51" y1="75.02" x2="28.82" y2="45.05"/><line class="cls-2" x1="76.22" y1="15.16" x2="50.54" y2="28.82"/><line class="cls-2" x1="106.29" y1="15.16" x2="135.65" y2="28.82"/><line class="cls-2" x1="154.55" y1="47.24" x2="165.97" y2="75.02"/><line class="cls-2" x1="168.21" y1="101.57" x2="157.94" y2="131.56"/><line class="cls-2" x1="135.99" y1="147.63" x2="108.34" y2="159.04"/><line class="cls-2" x1="78.97" y1="161.29" x2="47.39" y2="147.63"/><line class="cls-2" x1="28.82" y1="128.58" x2="17.26" y2="101.36"/><line class="cls-2" x1="116.72" y1="67.6" x2="135.99" y2="45.05"/><line class="cls-2" x1="49.61" y1="133.52" x2="73.58" y2="108.85"/><line class="cls-2" x1="92.63" y1="67.6" x2="92.63" y2="28.82"/><line class="cls-3" x1="30.87" y1="88.22" x2="73.58" y2="87.91"/><line class="cls-3" x1="116.72" y1="87.91" x2="154.55" y2="87.91"/><line class="cls-3" x1="73.58" y1="67.6" x2="47.39" y2="45.05"/><line class="cls-3" x1="113.06" y1="105.66" x2="135.99" y2="131.56"/><line class="cls-3" x1="92.63" y1="108.85" x2="92.63" y2="147.63"/></g></g></svg>