<svg xmlns="http://www.w3.org/2000/svg" viewBox="0 0 262.56 163.99"><defs><style>.cls-1{fill:#ee513b;}.cls-2{fill:none;}.cls-2,.cls-3{stroke:#fff;stroke-miterlimit:10;stroke-width:3px;}.cls-3{fill:#272a31;}</style></defs><g id="Layer_2" data-name="Layer 2"><g id="Layer_1-2" data-name="Layer 1"><polyline class="cls-1" points="115.65 132.11 112.38 160.57 134.02 143.49"/><polyline class="cls-2" points="115.65 132.11 112.38 160.57 134.02 143.49"/><path class="cls-1" d="M134,143.49l118.17-2.06c4.83-.08,8.74-3.7,8.75-8.09l.12-66c0-4.38-3.89-7.87-8.72-7.78L124.51,61.78c-4.82.09-8.74,3.71-8.75,8.09l-.11,62.24"/><path class="cls-2" d="M134,143.49l118.17-2.06c4.83-.08,8.74-3.7,8.75-8.09l.12-66c0-4.38-3.89-7.87-8.72-7.78L124.51,61.78c-4.82.09-8.74,3.71-8.75,8.09l-.11,62.24"/><line class="cls-3" x1="254.29" y1="82.36" x2="166.62" y2="83.88"/><line class="cls-3" x1="254.27" y1="96" x2="166.6" y2="97.53"/><line class="cls-3" x1="254.24" y1="109.37" x2="166.57" y2="110.9"/><polyline class="cls-3" points="146.87 78.78 150.09 110.06 128.47 91.66"/><path class="cls-3" d="M128.47,91.66H10.24A8.74,8.74,0,0,1,1.5,82.92V10.24A8.74,8.74,0,0,1,10.24,1.5H138.13a8.74,8.74,0,0,1,8.74,8.74V78.78"/><line class="cls-3" x1="8.25" y1="26.65" x2="95.96" y2="26.65"/><line class="cls-3" x1="8.25" y1="41.68" x2="95.96" y2="41.68"/><line class="cls-3" x1="8.25" y1="56.4" x2="95.96" y2="56.4"/></g></g></svg>