<svg xmlns="http://www.w3.org/2000/svg" viewBox="0 0 440.7 120.5"><defs><style>.cls-1{fill:#9096a3;}.cls-2{fill:#686868;}.cls-3,.cls-6{fill:#272a31;}.cls-3,.cls-7{stroke:#fff;stroke-miterlimit:10;stroke-width:3px;}.cls-4{fill:#fff;}.cls-5,.cls-7{fill:#ee513b;}</style></defs><g id="Layer_2" data-name="Layer 2"><g id="Layer_1-2" data-name="Layer 1"><circle class="cls-1" cx="40.9" cy="11.6" r="10.3"/><circle class="cls-2" cx="64.6" cy="5.8" r="5.8"/><circle class="cls-3" cx="58.8" cy="68.3" r="50.7"/><circle class="cls-4" cx="58.8" cy="68.3" r="44.9"/><path class="cls-5" d="M40.9,75.4l-.1.2v0L36.7,85.8a22.68,22.68,0,0,0-.7-2.2L25.4,56.4A7.94,7.94,0,0,0,24,53.7a3.14,3.14,0,0,0-1.9-1v-.9H34.9v.9c-1.1.3-1.7.8-1.7,1.6a5.35,5.35,0,0,0,.4,1.8Z"/><path class="cls-5" d="M95.4,87.6v.9H83.7v-.9a2.27,2.27,0,0,0,1.7-2.4,10.71,10.71,0,0,0-.6-2.3L79.1,64.8h0v-.3l4.6-9.6a7.64,7.64,0,0,0,.5,2.1l5.5,17.2v.1l.1.3L93.7,86c0,.1.1.2.1.3h0A1.81,1.81,0,0,0,95.4,87.6Z"/><path class="cls-6" d="M85.5,51.9v.9a2.31,2.31,0,0,0-1.7,2h0l-4.6,9.8v.2l-.1-.3L71.8,83.4a7.6,7.6,0,0,0-.4,1.1v.1a3.09,3.09,0,0,0-.2.8v.2h0v.3c0,.9.6,1.4,1.9,1.6v.9H61.2v-.9c1.3-.2,1.9-.8,1.9-1.8a10.27,10.27,0,0,0-.8-2.4L54.2,62.4l-.1.2-.1-.2L45.6,83.7a6.72,6.72,0,0,0-.7,2.1c0,.8.7,1.4,2,1.8v.9H35.2v-.9q1.8-.3,1.8-1.8h0l4.1-10.4v0L49,55.8a6.76,6.76,0,0,0,.5-1.7c0-.8-.6-1.4-1.8-1.6v-.9H61v.9q-1.8.45-1.8,1.8a6.42,6.42,0,0,0,.5,1.6l7.5,19.5.1-.2.1.2,7.3-19.2a6.88,6.88,0,0,0,.6-2.1c0-.8-.6-1.3-1.9-1.6v-.9H85.9l-.4.3Z"/><path class="cls-4" d="M117.5,27.8l-7.4-.8V24.4h15.8V27l-7,.8ZM136,24.4h3.7l8.9,29.4-2.3,2.9,9.1-32.3h3.1L148.2,60.7h-3.8l-9.5-29.4,2-.9-9.4,30.3h-3.7L113.1,24.4h7.4l7.7,29.4-2.4,2.9Zm1.1,3.4-6.8-.8V24.4h15.5V27l-6.7.8Zm18.4,0-5.4-.8V24.4H162V27l-5.3.8Z"/><path class="cls-4" d="M163.9,58l6-.8h1.3l5.4.8v2.6H163.9Zm.3-33.6h7.5v3.4h-.8l-6.7-.8Zm4.8,0h2.7l.4,17.5V60.4h-3.2v-36Zm.2,0h7.1l11.5,29.5H186l10.9-29.5h3.2L186.7,60.5h-3.4ZM193.1,58l6.7-.8h1.8l7.5.8v2.6h-16Zm4.4-13.8.1-19.8h7c-.2,5.5-.2,11.2-.2,16.9v2.4c0,5.6,0,11.3.2,16.9h-7.3C197.5,55,197.5,49.3,197.5,44.2ZM201,24.4h8.1V27l-7.4.8H201V24.4Z"/><path class="cls-4" d="M227.2,37.6l-5.3-.9V34.5h13.3v2.2l-6,.9Zm19.2-3.1,7.1,20.1-1.3-.3,6.2-19.8h3.4l-9.1,26.3h-3c-4.9-12.7-6.5-17.5-7.6-21.7l2.2-.2-7.9,21.9h-3l-9.7-26.3h6.9l6.5,20.1-1.2-.3,7-19.8Zm-8.1,2.2V34.5h12.6v2.2l-5.2.9H244Zm20.4.8-4.8-.8V34.5h9.9v2.2l-4.1.8Z"/><path class="cls-4" d="M290.3,44.7a12.62,12.62,0,0,1-.3,3H269.3V45.1h11.5c2.6,0,3.2-1.1,3.2-3.1,0-3.3-2.2-5.6-4.8-5.6-2.9,0-5.9,2.7-5.9,10.5,0,6.8,3.4,10.1,8.1,10.1a9,9,0,0,0,7.1-3.4l1.6,1.4c-2.1,4.1-5.8,6.3-10.9,6.3-7.6,0-12.8-5.1-12.8-13.6,0-8.7,6.3-13.9,13.2-13.9C286,33.7,290.3,38.1,290.3,44.7Z"/><path class="cls-4" d="M294,58.3l5.5-1.1-2,3.3c.1-2.4.2-8.1.2-11.4V25.7l-3.9-.5V23.1l9.7-2.4.8.5-.2,7.7v9.3l.2.7V56.4l-1,4.8-9.2-.6V58.3Zm21.6-10.7c0-6.7-2.5-10-6.2-10-2.4,0-5,1.9-7.8,4.8l-.5-.9c3.1-5.3,6.7-7.8,11-7.8,5.8,0,10.5,4.8,10.5,13.5s-5.1,14-11.4,14c-4.1,0-7.2-2.1-9.9-7.8l.5-1c2.5,3.3,4.8,4.9,7.4,4.9C312.8,57.5,315.6,54.3,315.6,47.6Z"/><path class="cls-4" d="M326.8,59V52.7h3.6l1.3,6.9-2.9-1.2v-2a11.51,11.51,0,0,0,6.8,2.2c3.6,0,5.5-1.3,5.5-3.7,0-2-1.3-3.2-4.8-4.3l-2.7-.9c-4.1-1.3-6.6-3.8-6.6-7.7,0-4.5,3.7-8.2,10.4-8.2a16.12,16.12,0,0,1,8.1,2.2l-.3,5.7h-3.6l-1.3-6.1,2.5,1.1v1.7a8.75,8.75,0,0,0-5.5-1.9c-2.9,0-4.6,1.3-4.6,3.4s1.1,3,4.8,4.2l2.2.7c5.3,1.8,7.4,4.5,7.4,8.2,0,4.9-4.1,8.4-11.4,8.4A19.06,19.06,0,0,1,326.8,59Z"/><path class="cls-4" d="M354,60.5c.1-2.4.2-8.1.2-11.4V46.5c0-3-.1-4.7-.2-6.9l-3.9-.5v-2l9.8-3.4.9.6-.2,7.6v7.2c0,3.4.1,9,.2,11.4Zm10-2.2v2.2H350.5V58.3l5.5-1.1h2.6ZM353.2,24.8a4.11,4.11,0,1,1,4.1,3.9A4,4,0,0,1,353.2,24.8Z"/><path class="cls-4" d="M379.5,57.7a5,5,0,0,0,3.3-1.4l1.3,1.4c-1.4,2.3-3.8,3.6-7.1,3.6-4.4,0-7-2.1-7-6.9,0-1.6.1-2.9.1-5V37.8h-4V35l6.6-.9-2.7,2,2.6-9.2H377l-.3,9.7V53.8C376.6,56.5,377.8,57.7,379.5,57.7Zm3.7-23.2v3.3h-9.8V34.5Z"/><path class="cls-4" d="M409.9,44.7a12.62,12.62,0,0,1-.3,3H388.9V45.1h11.5c2.6,0,3.2-1.1,3.2-3.1,0-3.3-2.2-5.6-4.8-5.6-2.9,0-5.9,2.7-5.9,10.5,0,6.8,3.4,10.1,8.1,10.1a9,9,0,0,0,7.1-3.4l1.6,1.4c-2.1,4.1-5.8,6.3-10.9,6.3-7.6,0-12.8-5.1-12.8-13.6,0-8.7,6.3-13.9,13.2-13.9C405.7,33.7,409.9,38.1,409.9,44.7Z"/><path class="cls-4" d="M111.6,68.6V66h8.2v3.4h-.7Zm8.2,30.2v3.4h-8.2V99.6l7.5-.8Zm-3.5-15.9c0-5.6,0-11.3-.2-16.9h7.4c-.2,5.5-.2,11.2-.2,16.9v1.9c0,6,0,11.7.2,17.3h-7.4c.2-5.5.2-11.2.2-17.3Zm3.5,16.4h6.7c7.4,0,11.6-5.5,11.6-15.2,0-9.9-4.3-15.2-11.3-15.2h-7V66.1h7.9c11,0,18.1,6.6,18.1,18,0,11.6-7.9,18.1-19.1,18.1h-6.9Z"/><path class="cls-4" d="M173.9,86.3a12.62,12.62,0,0,1-.3,3H152.9V86.7h11.5c2.6,0,3.2-1.1,3.2-3.1,0-3.3-2.2-5.6-4.8-5.6-2.9,0-5.9,2.7-5.9,10.5,0,6.8,3.4,10.1,8.1,10.1a9,9,0,0,0,7.1-3.4l1.6,1.4c-2.1,4.1-5.8,6.3-10.9,6.3-7.6,0-12.8-5.1-12.8-13.6,0-8.7,6.3-13.9,13.2-13.9C169.6,75.4,173.9,79.7,173.9,86.3Z"/><path class="cls-4" d="M180.9,79.3l-5.1-.9V76.2h14.3v2.2l-5.8.9Zm3.9-3.2,7.8,20.7-2.9,4.4,8.7-25.1h3.4l-10,26.3h-3.2l-11-26.3Zm13.5,3.2-5-.9V76.2h10.3v2.2l-4.1.9Z"/><path class="cls-4" d="M230,86.3a12.62,12.62,0,0,1-.3,3H209V86.7h11.5c2.6,0,3.2-1.1,3.2-3.1,0-3.3-2.2-5.6-4.8-5.6-2.9,0-5.9,2.7-5.9,10.5,0,6.8,3.4,10.1,8.1,10.1a9,9,0,0,0,7.1-3.4l1.6,1.4c-2.1,4.1-5.8,6.3-10.9,6.3-7.6,0-12.8-5.1-12.8-13.6,0-8.7,6.3-13.9,13.2-13.9C225.7,75.4,230,79.7,230,86.3Z"/><path class="cls-4" d="M243.2,62.3l.8.5-.2,7.7V90.7c0,3.8.1,7.6.2,11.4h-6.9c.1-3.8.2-7.6.2-11.4V67.3l-3.9-.5V64.7Zm4.4,37.6v2.2H233.5V99.9l5.7-1.1h2.6Z"/><path class="cls-4" d="M251,89.1c0-8.7,6.1-13.8,13.1-13.8s13.1,5,13.1,13.8-5.8,13.8-13.1,13.8S251,97.8,251,89.1Zm19.1.1c0-7.5-2.2-11.2-6-11.2s-6,3.7-6,11.2,2.1,11.1,6,11.1S270.1,96.7,270.1,89.2Z"/><path class="cls-4" d="M284.8,87.9c0-3-.1-4.4-.2-6.6l-3.8-.5v-2l9.1-3.4.9.5.4,4.4.2.5v17l-.2.5V103c0,3.6.1,7.6.2,11.9h-6.7c.1-4.3.2-8.2.2-11.8V87.9Zm10.8,24.7v2.2H281v-2.2l5.7-1.1h3.2Zm1-33.4c-2.5,0-5,2-7.9,4.8l-.5-.9c3.1-5.3,6.7-7.8,11-7.8,5.8,0,10.5,5,10.5,13.7s-5.1,13.9-11.4,13.9c-4.1,0-7.2-2.2-9.9-7.8l.5-.9c2.5,3.3,4.6,4.9,7.3,4.9,3.7,0,6.5-3.1,6.5-9.8S300.2,79.2,296.6,79.2Z"/><path class="cls-4" d="M317,102.2c.1-2.4.2-8.1.2-11.4V87.9a64.36,64.36,0,0,0-.2-6.6l-3.8-.5v-2l9.1-3.4.9.6.6,6.2v8.7c0,3.4.1,9,.2,11.4h-7Zm10-2.3v2.2H313.6V99.9l5.5-1.1h2.6Zm12.9-14.8v5.7c0,3.5.1,9,.2,11.4h-6.8c.1-2.4.2-7.9.2-11.4V85.9c0-4.4-1-5.9-3.9-5.9-2.5,0-4.8,1.5-7.1,3.9h-1.6v-3H324l-2,1.3c2.9-4.2,6.6-6.7,10.6-6.7C337.5,75.4,339.9,78.3,339.9,85.1ZM338,98.9l5.2,1.1v2.2H329.9V100l5.4-1.1Zm18.1-14v5.8c0,3.5.1,9,.2,11.4h-6.8c.1-2.4.2-7.9.2-11.4v-5c0-4.6-1.1-5.9-3.8-5.9-2.4,0-4.6,1.3-7.2,3.9h-1.6V80.9h3.4L338.1,82c3.3-4.8,6.9-6.7,10.7-6.7C353.6,75.4,356.1,78.3,356.1,84.9Zm-1.9,14,5.3,1.1v2.2H346.2V100l5.2-1.1Z"/><path class="cls-4" d="M386.8,86.3a12.62,12.62,0,0,1-.3,3H365.8V86.7h11.5c2.6,0,3.2-1.1,3.2-3.1,0-3.3-2.2-5.6-4.8-5.6-2.9,0-5.9,2.7-5.9,10.5,0,6.8,3.4,10.1,8.1,10.1a9,9,0,0,0,7.1-3.4l1.6,1.4c-2.1,4.1-5.8,6.3-10.9,6.3-7.6,0-12.8-5.1-12.8-13.6,0-8.7,6.3-13.9,13.2-13.9C382.5,75.4,386.8,79.7,386.8,86.3Z"/><path class="cls-4" d="M394.2,102.2c.1-2.4.2-8.1.2-11.4V87.9c0-3-.1-4.4-.2-6.6l-3.8-.5v-2l9.1-3.4.9.6.6,6.2v8.7c0,3.4.1,9,.2,11.4h-7Zm10-2.3v2.2H390.8V99.9l5.5-1.1h2.6Zm13.1-14.8v5.7c0,3.5.1,9,.2,11.4h-6.9c.1-2.4.2-7.9.2-11.4V85.7c0-4.3-1.1-5.7-3.8-5.7-2.3,0-4.8,1.3-7.4,3.9h-1.5v-3h3.2l-2.2,1.3c3.2-4.5,6.9-6.7,10.8-6.7C414.6,75.4,417.3,78.3,417.3,85.1Zm-2,13.8,5.4,1.1v2.2H407.2V100l5.4-1.1Z"/><path class="cls-4" d="M436.1,99.3a5,5,0,0,0,3.3-1.4l1.3,1.4c-1.4,2.3-3.8,3.6-7.1,3.6-4.4,0-7-2.1-7-6.9,0-1.6.1-2.9.1-5V79.4h-4V76.6l6.6-.9-2.7,2,2.6-9.2h4.4l-.3,9.7V95.4C433.2,98.2,434.4,99.3,436.1,99.3Zm3.7-23.2v3.3H430V76.1Z"/><circle class="cls-7" cx="22.2" cy="28.7" r="20.7" transform="translate(-9.29 10.68) rotate(-22.5)"/></g></g></svg>