<svg xmlns="http://www.w3.org/2000/svg" viewBox="0 0 436.58 119.59"><defs><style>.cls-1{fill:#9096a3;}.cls-2,.cls-3{fill:#272a31;}.cls-3,.cls-6{stroke:#fff;stroke-miterlimit:10;}.cls-4{fill:#fff;}.cls-5,.cls-6{fill:#ee513b;}</style></defs><g id="Layer_2" data-name="Layer 2"><g id="Layer_1-2" data-name="Layer 1"><circle class="cls-1" cx="39.98" cy="11.67" r="10.31"/><circle class="cls-2" cx="63.61" cy="5.83" r="5.83"/><circle class="cls-3" cx="57.84" cy="68.36" r="50.73"/><circle class="cls-4" cx="57.84" cy="68.36" r="44.87"/><path class="cls-5" d="M40,75.4l-.07.18,0-.08v.06L35.78,85.78a19.57,19.57,0,0,0-.73-2.19L24.48,56.39a9.85,9.85,0,0,0-1.42-2.74,3.23,3.23,0,0,0-1.85-1v-.86H34v.86q-1.71.38-1.71,1.59a5.66,5.66,0,0,0,.44,1.79Z"/><path class="cls-5" d="M94.47,87.67v.89H82.74v-.89a2.32,2.32,0,0,0,1.72-2.39A10.34,10.34,0,0,0,83.87,83l-5.7-18.09h0v-.29L82.76,55a7.49,7.49,0,0,0,.46,2.13l5.45,17.16,0,.14.11.28,3.92,11.41a2,2,0,0,0,.12.34v0h0A2.1,2.1,0,0,0,94.47,87.67Z"/><path class="cls-2" d="M84.52,51.94v.92a2.43,2.43,0,0,0-1.74,2h0l-4.6,9.76,0,.13,0,.12L78,64.63l-7.33,19c-.17.43-.31.81-.42,1.15a.78.78,0,0,1-.05.14c-.09.3-.17.56-.22.78s0,.16,0,.23v0c0,.07,0,.13,0,.19v.09c0,.88.64,1.43,1.92,1.64v.87H60v-.87c1.26-.19,1.89-.8,1.89-1.81A9,9,0,0,0,61,83.59L52.89,62.72l-.07.17-.07-.17L44.32,84a7.41,7.41,0,0,0-.73,2.06c0,.83.67,1.41,2,1.75v.87H33.86v-.87c1.2-.23,1.81-.84,1.81-1.83v0l0,0,4.15-10.37v-.08l0,.1L47.81,56a6.07,6.07,0,0,0,.51-1.68c0-.83-.6-1.36-1.81-1.59v-.86H59.77v.86c-1.22.32-1.84.91-1.84,1.75a6,6,0,0,0,.46,1.63l7.53,19.51L66,75.4l.07.18,7.27-19.19a6.53,6.53,0,0,0,.57-2.13c0-.8-.65-1.32-2-1.57v-.86H84.49v.11Z"/><path class="cls-2" d="M116.55,27.85,109.18,27V24.48H125V27l-7,.81Zm18.5-3.37h3.68l9,29.4-2.28,2.94,9.07-32.34h3.1l-10.3,36.33H143.5L134,31.45l2-.9-9.37,30.26h-3.74L112.25,24.48h7.4l7.71,29.4-2.44,2.94Zm1.09,3.37-6.8-.81V24.48h15.5V27l-6.67.81Zm18.37,0-5.4-.81V24.48h11.95V27l-5.29.81Z"/><path class="cls-2" d="M162.64,58l6-.81H170l5.35.81v2.56H162.64Zm.24-33.53h7.48l0,3.37h-.78L162.88,27Zm4.83,0h2.71L170.87,42V60.57h-3.16Zm.2,0H175L186.52,54h-1.83l10.9-29.51h3.24L185.47,60.57H182ZM191.81,58l6.75-.81h1.81l7.49.81v2.56H191.81Zm4.4-13.72.1-19.81h7c-.16,5.54-.16,11.19-.16,16.87v2.36c0,5.64,0,11.3.16,16.86H196C196.21,55,196.19,49.38,196.21,44.29Zm3.45-19.81h8.1V27l-7.39.81h-.71Z"/><path class="cls-2" d="M226,37.66l-5.31-.89V34.53H234v2.24l-6,.89Zm19.16-3.13,7.13,20.13-1.33-.3,6.25-19.83h3.44l-9.1,26.25h-3c-4.93-12.72-6.51-17.54-7.63-21.66l2.18-.2-8,21.86h-3l-9.68-26.25h6.93l6.52,20.13-1.22-.3,7-19.83ZM237,36.77V34.53h12.65v2.24l-5.21.89h-1.71Zm20.41.81-4.77-.81V34.53h9.93v2.24l-4.15.81Z"/><path class="cls-2" d="M287.66,44.71a11.69,11.69,0,0,1-.34,3H266.63V45.11h11.55c2.61,0,3.24-1.11,3.24-3.09,0-3.34-2.15-5.63-4.84-5.63-2.86,0-5.88,2.69-5.88,10.51,0,6.77,3.38,10.11,8.12,10.11a9,9,0,0,0,7.09-3.38L287.48,55c-2.09,4.06-5.79,6.33-10.91,6.33-7.6,0-12.79-5.12-12.79-13.65,0-8.7,6.33-13.93,13.22-13.93C283.4,33.76,287.66,38.13,287.66,44.71Z"/><path class="cls-2" d="M290.6,58.37l5.47-1.09-2,3.31c.11-2.45.16-8.05.16-11.42V25.73l-3.93-.48V23.14L300,20.69l.82.5-.21,7.66V38.2l.16.71V56.45l-1,4.78-9.19-.64Zm21.66-10.75c0-6.72-2.52-10-6.2-10-2.42,0-5,1.95-7.82,4.84l-.48-.94c3.13-5.33,6.71-7.77,11-7.77,5.85,0,10.5,4.83,10.5,13.55s-5.15,14-11.39,14c-4.12,0-7.23-2.13-9.88-7.77l.49-1c2.53,3.29,4.83,4.91,7.45,4.91C309.43,57.53,312.26,54.33,312.26,47.62Z"/><path class="cls-2" d="M323.49,59.05l0-6.31h3.65l1.35,6.86-2.87-1.15V56.4a11.3,11.3,0,0,0,6.75,2.21c3.65,0,5.49-1.35,5.49-3.69,0-2-1.31-3.18-4.82-4.33l-2.72-.88c-4.09-1.35-6.58-3.81-6.58-7.71,0-4.48,3.67-8.24,10.37-8.24a15.93,15.93,0,0,1,8.1,2.21l-.3,5.73h-3.55L337,35.59l2.5,1.09v1.71a8.81,8.81,0,0,0-5.55-1.9c-2.9,0-4.58,1.26-4.58,3.39,0,2,1.08,2.95,4.8,4.19l2.15.68c5.3,1.77,7.37,4.47,7.37,8.18,0,4.91-4.1,8.41-11.42,8.41A17.37,17.37,0,0,1,323.49,59.05Z"/><path class="cls-2" d="M350.55,60.57c.11-2.45.16-8,.16-11.42V46.57c0-3,0-4.68-.16-6.85l-3.9-.49v-2l9.83-3.44.87.56L357.19,42v7.2c0,3.37.05,9,.16,11.42Zm10-2.22v2.22H347.07V58.35l5.51-1.09h2.62ZM349.77,24.8a4.12,4.12,0,1,1,4.11,3.89A3.88,3.88,0,0,1,349.77,24.8Z"/><path class="cls-2" d="M376,57.74a5.47,5.47,0,0,0,3.32-1.37l1.29,1.39c-1.4,2.26-3.79,3.58-7.15,3.58-4.35,0-7-2.08-7-6.87,0-1.6.06-2.91.06-5V37.81h-4V35l6.58-.86-2.65,2L369,27h4.37l-.28,9.66v17.2C373.13,56.56,374.31,57.74,376,57.74Zm3.68-23.21v3.28h-9.84V34.53Z"/><path class="cls-2" d="M406.36,44.71a11.22,11.22,0,0,1-.35,3H385.32V45.11h11.55c2.61,0,3.25-1.11,3.25-3.09,0-3.34-2.15-5.63-4.84-5.63-2.86,0-5.89,2.69-5.89,10.51,0,6.77,3.38,10.11,8.12,10.11a9,9,0,0,0,7.1-3.38L406.18,55c-2.1,4.06-5.8,6.33-10.91,6.33-7.61,0-12.8-5.12-12.8-13.65,0-8.7,6.34-13.93,13.22-13.93C402.09,33.76,406.36,38.13,406.36,44.71Z"/><path class="cls-2" d="M110.67,68.67V66.12h8.2v3.37h-.7Zm8.2,30.16v3.38h-8.2V99.65l7.5-.82ZM115.34,83c0-5.6,0-11.26-.16-16.86h7.38c-.16,5.49-.16,11.15-.16,16.86v1.93c0,6,0,11.69.16,17.3h-7.38c.16-5.5.16-11.16.16-17.28Zm3.53,16.4h6.74c7.36,0,11.62-5.54,11.62-15.2,0-9.92-4.26-15.24-11.33-15.24h-7V66.12h7.91c11,0,18.06,6.6,18.06,18s-7.85,18.07-19.09,18.07h-6.88Z"/><path class="cls-2" d="M172.93,86.34a11.39,11.39,0,0,1-.34,3H151.9V86.75h11.55c2.61,0,3.25-1.12,3.25-3.1,0-3.34-2.15-5.63-4.84-5.63C159,78,156,80.72,156,88.54c0,6.77,3.38,10.11,8.12,10.11a9,9,0,0,0,7.1-3.39l1.57,1.38c-2.1,4.06-5.8,6.33-10.91,6.33-7.61,0-12.8-5.12-12.8-13.64,0-8.71,6.33-13.94,13.22-13.94C168.67,75.39,172.93,79.76,172.93,86.34Z"/><path class="cls-2" d="M179.65,79.35l-5.13-.94V76.16h14.27v2.25l-5.78.94Zm3.87-3.19,7.79,20.72-2.95,4.39L197,76.16h3.38l-10,26.25h-3.21l-11-26.25ZM197,79.29l-5-.88V76.16h10.3v2.25l-4.15.88Z"/><path class="cls-2" d="M227.39,86.34a11.35,11.35,0,0,1-.35,3H206.35V86.75H217.9c2.61,0,3.25-1.12,3.25-3.1,0-3.34-2.15-5.63-4.84-5.63-2.86,0-5.89,2.7-5.89,10.52,0,6.77,3.38,10.11,8.12,10.11a9,9,0,0,0,7.1-3.39l1.57,1.38c-2.1,4.06-5.8,6.33-10.91,6.33-7.61,0-12.8-5.12-12.8-13.64,0-8.71,6.34-13.94,13.22-13.94C223.12,75.39,227.39,79.76,227.39,86.34Z"/><path class="cls-2" d="M239.87,62.33l.83.5-.22,7.66V90.78q0,5.72.16,11.43h-6.87c.1-3.81.16-7.62.16-11.43V67.43L230,66.88v-2.1Zm4.4,37.65v2.23H230.13V100l5.67-1.09h2.63Z"/><path class="cls-2" d="M247.62,89.18c0-8.69,6.09-13.79,13.12-13.79s13.12,5,13.12,13.79S268.05,103,260.74,103,247.62,97.87,247.62,89.18Zm19.15.06c0-7.51-2.16-11.2-6-11.2s-6,3.69-6,11.2,2.09,11.09,6,11.09S266.77,96.77,266.77,89.24Z"/><path class="cls-2" d="M280.93,87.93c0-3-.06-4.4-.17-6.58l-3.83-.49v-2L286,75.39l.85.53.4,4.42.24.47v17l-.17.51V103c0,3.63.06,7.56.17,11.89h-6.72c.11-4.33.17-8.19.17-11.82Zm10.75,24.73v2.24H277.1v-2.24l5.66-1.09H286Zm1-33.39c-2.45,0-5,2-7.88,4.84l-.49-.94c3.13-5.33,6.71-7.78,11-7.78,5.84,0,10.49,5,10.49,13.67S300.63,103,294.38,103c-4.12,0-7.23-2.16-9.87-7.8l.49-.93c2.53,3.29,4.62,4.92,7.3,4.92,3.68,0,6.51-3.07,6.51-9.79S296.29,79.27,292.68,79.27Z"/><path class="cls-2" d="M313.07,102.21c.11-2.45.16-8.06.16-11.43V87.93c0-3,0-4.4-.16-6.58l-3.83-.49v-2l9.09-3.45.88.57.57,6.17v8.65c0,3.37.06,9,.17,11.43Zm10-2.23v2.23H309.64V100l5.51-1.09h2.64ZM336,85.1v5.68c0,3.48.06,9,.16,11.43h-6.79c.11-2.45.16-7.95.16-11.43V85.87c0-4.42-1-5.93-3.85-5.93-2.5,0-4.8,1.53-7.13,3.87H317v-3h3.09l-2,1.26c2.94-4.17,6.59-6.7,10.55-6.7C333.57,75.39,336,78.38,336,85.1Zm-1.93,13.79,5.22,1.09v2.23H326V100l5.39-1.09Zm18.13-14v5.84c0,3.48.06,9,.16,11.43h-6.79c.11-2.45.16-7.95.16-11.43v-5c0-4.59-1.13-5.86-3.84-5.86-2.39,0-4.64,1.26-7.18,3.87H333.1V81h3.4l-2.36,1.06c3.34-4.85,6.87-6.7,10.65-6.7C349.72,75.39,352.22,78.33,352.22,84.94Zm-1.91,14,5.28,1.09v2.23H342.32V100l5.25-1.09Z"/><path class="cls-2" d="M382.86,86.34a11.84,11.84,0,0,1-.34,3h-20.7V86.75h11.55c2.61,0,3.25-1.12,3.25-3.1,0-3.34-2.15-5.63-4.84-5.63-2.86,0-5.89,2.7-5.89,10.52,0,6.77,3.38,10.11,8.13,10.11a9,9,0,0,0,7.09-3.39l1.57,1.38c-2.1,4.06-5.8,6.33-10.91,6.33-7.61,0-12.8-5.12-12.8-13.64,0-8.71,6.34-13.94,13.22-13.94C378.6,75.39,382.86,79.76,382.86,86.34Z"/><path class="cls-2" d="M390.26,102.21c.11-2.45.17-8.06.17-11.43V87.93c0-3-.06-4.4-.17-6.58l-3.83-.49v-2l9.09-3.45.88.57.57,6.17v8.65c0,3.37.06,9,.17,11.43Zm10-2.23v2.23H386.84V100l5.5-1.09H395ZM413.43,85.1v5.68c0,3.48.06,9,.16,11.43h-6.87c.11-2.45.16-7.95.16-11.43V85.63c0-4.26-1.08-5.69-3.79-5.69-2.32,0-4.75,1.27-7.37,3.87h-1.5v-3h3.23l-2.2,1.26c3.2-4.49,6.91-6.7,10.79-6.7C410.74,75.39,413.43,78.38,413.43,85.1Zm-2,13.79L416.8,100v2.23H403.35V100l5.45-1.09Z"/><path class="cls-2" d="M432,99.37A5.51,5.51,0,0,0,435.28,98l1.3,1.39c-1.4,2.26-3.79,3.57-7.15,3.57-4.36,0-7-2.08-7-6.86,0-1.61.05-2.91.05-5V79.45h-4v-2.8l6.59-.85-2.66,2L425,68.64h4.37l-.27,9.66V95.51C429.06,98.2,430.24,99.37,432,99.37Zm3.69-23.21v3.29H425.8V76.16Z"/><circle class="cls-6" cx="21.21" cy="28.77" r="20.71"/></g></g></svg>