<svg xmlns="http://www.w3.org/2000/svg" viewBox="0 0 32 32">
  <path d="M21.300781 6C21.143781 6 21 6.1257812 21 6.3007812L21 11.796875L19.753906 11.070312C19.675906 11.024313 19.588 11.001953 19.5 11.001953C19.412 11.001953 19.324094 11.024312 19.246094 11.070312L16.251953 12.816406C16.095953 12.906406 16 13.072953 16 13.251953L16 16.748047C16 16.928047 16.095953 17.093594 16.251953 17.183594L19.246094 18.929688C19.324094 18.975687 19.412 18.998047 19.5 18.998047C19.588 18.998047 19.675906 18.975688 19.753906 18.929688L22.748047 17.183594C22.904047 17.093594 23 16.927047 23 16.748047L23 15L23 13.251953L23 7.2304688C23 7.0524688 22.904953 6.8888281 22.751953 6.7988281L21.449219 6.0410156C21.400219 6.0130156 21.350781 6 21.300781 6 z M 11.5 11.001953C11.41225 11.001953 11.324594 11.024813 11.246094 11.070312L8.2519531 12.816406C8.0959531 12.906406 8 13.072953 8 13.251953L8 16.748047C8 16.928047 8.0959531 17.093594 8.2519531 17.183594L11.246094 18.929688C11.403094 19.020688 11.596906 19.020688 11.753906 18.929688L14.748047 17.183594C14.904047 17.093594 15 16.927047 15 16.748047L15 13.251953C15 13.071953 14.904047 12.906406 14.748047 12.816406L11.753906 11.070312C11.675406 11.024812 11.58775 11.001953 11.5 11.001953 z M 27.5 11.001953C27.412 11.001953 27.324094 11.024312 27.246094 11.070312L24.251953 12.816406C24.095953 12.906406 24 13.072953 24 13.251953L24 16.748047C24 16.928047 24.095953 17.093594 24.251953 17.183594L27.15625 18.939453C27.31225 19.034453 27.508016 19.035359 27.666016 18.943359L29.09375 18.113281C29.24175 18.028281 29.24275 17.813562 29.09375 17.726562L26 15.904297L26 14.109375L27.5 13.236328L29 14.109375L29 15.359375C29 15.526375 29.140375 15.552094 29.234375 15.496094C29.612375 15.274094 30.751953 14.613281 30.751953 14.613281C30.904953 14.524281 31 14.359641 31 14.181641L31 13.251953C31 13.071953 30.904047 12.906406 30.748047 12.816406L27.753906 11.070312C27.674906 11.024313 27.588 11.001953 27.5 11.001953 z M 3.5 11.003906C3.412 11.003906 3.3240937 11.026266 3.2460938 11.072266L0.25195312 12.816406C0.095953125 12.907406 0 13.073906 0 13.253906L0 17.716797C0 17.934797 0.23582812 18.069938 0.42382812 17.960938L1.7519531 17.1875C1.9049531 17.0975 2 16.933859 2 16.755859L2 14.113281L3.5 13.238281L5 14.113281L5 16.755859C5 16.933859 5.0950469 17.0975 5.2480469 17.1875L6.5761719 17.960938C6.7641719 18.070938 7 17.934797 7 17.716797L7 13.253906C7 13.073906 6.9040469 12.907406 6.7480469 12.816406L3.7539062 11.072266C3.6759063 11.026266 3.588 11.003906 3.5 11.003906 z M 19.5 13.236328L21 14.111328L21 15L21 15.888672L19.5 16.763672L18 15.888672L18 14.111328L19.5 13.236328 z M 27.5 14.003906L26.642578 14.503906L26.642578 15.501953L27.5 16L28.357422 15.501953L28.357422 14.503906L27.5 14.003906 z M 15.40625 17.998047C15.303375 17.998047 15.199375 18.023219 15.109375 18.074219L12.296875 19.699219C12.111875 19.801219 12 20.001938 12 20.210938L12 23.457031C12 23.666031 12.116875 23.86275 12.296875 23.96875L13.037109 24.390625C13.392109 24.565625 13.522594 24.566406 13.683594 24.566406C14.213594 24.566406 14.515625 24.249453 14.515625 23.689453L14.515625 20.482422C14.515625 20.433422 14.477594 20.398438 14.433594 20.398438L14.078125 20.398438C14.029125 20.398438 13.994141 20.438422 13.994141 20.482422L13.994141 23.689453C13.994141 23.932453 13.737359 24.181656 13.318359 23.972656L12.548828 23.529297C12.523828 23.514297 12.505859 23.484078 12.505859 23.455078L12.505859 20.208984C12.505859 20.179984 12.519828 20.145859 12.548828 20.130859L15.361328 18.509766C15.391328 18.494766 15.425219 18.494766 15.449219 18.509766L18.263672 20.130859C18.292672 20.145859 18.306641 20.174984 18.306641 20.208984L18.306641 23.455078C18.306641 23.489078 18.287672 23.518203 18.263672 23.533203L15.449219 25.160156C15.424219 25.175156 15.385328 25.175156 15.361328 25.160156L14.642578 24.732422C14.623578 24.722422 14.593219 24.716562 14.574219 24.726562C14.375219 24.843563 14.335391 24.858875 14.150391 24.921875C14.101391 24.936875 14.034781 24.966922 14.175781 25.044922L15.109375 25.599609C15.202375 25.648609 15.30425 25.677734 15.40625 25.677734C15.51325 25.677734 15.617219 25.648703 15.699219 25.595703L18.511719 23.96875C18.696719 23.86675 18.808594 23.666031 18.808594 23.457031L18.808594 20.210938C18.808594 20.001938 18.691719 19.806219 18.511719 19.699219L15.699219 18.074219C15.611719 18.023219 15.509125 17.998047 15.40625 17.998047 z M 19.792969 19.496094C19.505969 19.496094 19.253906 19.728156 19.253906 20.035156C19.253906 20.332156 19.495969 20.576172 19.792969 20.576172C20.089969 20.576172 20.332031 20.332156 20.332031 20.035156C20.332031 19.728156 20.084969 19.491094 19.792969 19.496094 z M 19.787109 19.582031C20.041109 19.582031 20.246094 19.782156 20.246094 20.035156C20.246094 20.283156 20.040109 20.488141 19.787109 20.494141C19.538109 20.494141 19.335938 20.288156 19.335938 20.035156C19.335938 19.782156 19.539109 19.582031 19.787109 19.582031 z M 19.589844 19.728516L19.589844 20.335938L19.705078 20.335938L19.705078 20.09375L19.8125 20.09375C19.8565 20.09375 19.866953 20.112484 19.876953 20.146484C19.876953 20.151484 19.895391 20.308891 19.900391 20.337891L20.025391 20.337891C20.011391 20.308891 20.001094 20.225781 19.996094 20.175781C19.982094 20.097781 19.977531 20.044062 19.894531 20.039062C19.938531 20.024063 20.011719 20.000672 20.011719 19.888672C20.011719 19.727672 19.871828 19.728516 19.798828 19.728516L19.589844 19.728516 z M 19.705078 19.826172L19.802734 19.826172C19.832734 19.826172 19.890625 19.825203 19.890625 19.908203C19.890625 19.942203 19.875875 19.997094 19.796875 19.996094L19.705078 19.996094L19.705078 19.826172 z M 16.160156 20.322266C15.357156 20.322266 14.880859 20.664516 14.880859 21.228516C14.880859 21.846516 15.357953 22.011844 16.126953 22.089844C17.046953 22.181844 17.119141 22.314141 17.119141 22.494141C17.119141 22.810141 16.865484 22.941406 16.271484 22.941406C15.526484 22.941406 15.362594 22.756719 15.308594 22.386719C15.303594 22.347719 15.268609 22.318359 15.224609 22.318359L14.859375 22.318359C14.815375 22.318359 14.777344 22.353344 14.777344 22.402344C14.777344 22.874344 15.034625 23.439453 16.265625 23.439453C17.168625 23.438453 17.679688 23.088609 17.679688 22.474609C17.679688 21.866609 17.270297 21.704891 16.404297 21.587891C15.528297 21.470891 15.441406 21.412031 15.441406 21.207031C15.441406 21.037031 15.513156 20.814453 16.160156 20.814453C16.739156 20.814453 16.954969 20.941078 17.042969 21.330078C17.052969 21.369078 17.080141 21.392578 17.119141 21.392578L17.484375 21.392578C17.508375 21.392578 17.528969 21.383141 17.542969 21.369141C17.557969 21.350141 17.5675 21.330641 17.5625 21.306641C17.5045 20.634641 17.061156 20.322266 16.160156 20.322266 z" fill="#EE513B" />
</svg>