<svg xmlns="http://www.w3.org/2000/svg" viewBox="0 0 117.35 111.34"><defs><style>.cls-1{fill:none;}.cls-2{fill:#ee513b;}.cls-3{fill:#272a31;}</style></defs><g id="Layer_2" data-name="Layer 2"><g id="Layer_1-2" data-name="Layer 1"><path class="cls-1" d="M74.38,103.05a2.5,2.5,0,0,1,3.54-3.54l5.13,5.13a2.53,2.53,0,0,1,.69,1.37c1.42-.63,2.8-1.33,4.16-2.07L93,98.85a2.5,2.5,0,0,1,3.14-.32,59.26,59.26,0,0,0,5.28-4.72,2.5,2.5,0,0,1,.45-2.89L107,85.79a2.51,2.51,0,0,1,1.51-.71c.64-1,1.26-2,1.84-3a2.49,2.49,0,0,1-2.69-.56l-5.13-5.12a2.56,2.56,0,0,1-.71-1.52,2.49,2.49,0,0,1,3.78-3.23l5.13,5.12a2.51,2.51,0,0,1,.71,1.52,2.48,2.48,0,0,1,.42.92,53.24,53.24,0,0,0,5-16.18L116,62.2a2.41,2.41,0,0,1-.59-.94,2.49,2.49,0,0,1,1.92-4.18c0-.47,0-.94,0-1.41s0-1,0-1.48a2.48,2.48,0,0,1-1.85-.72,2.52,2.52,0,0,1,0-3.54l1.39-1.39A53.58,53.58,0,0,0,109,27a2.46,2.46,0,0,1-1.82-.72l-5.13-5.13a2.49,2.49,0,0,1-.69-1.32,2.48,2.48,0,0,1,.12-2.25,58.56,58.56,0,0,0-5-4.53,2.48,2.48,0,0,1-2.38-.65L90.6,9a58,58,0,0,0-5.48-3,2.5,2.5,0,0,1-.44,2.92L79.56,14A2.5,2.5,0,1,1,76,10.49l5.13-5.13a2.49,2.49,0,0,1,1.16-.65A60.83,60.83,0,0,0,65.68.41l-.06.05a2.49,2.49,0,0,1-3.53,0,2.8,2.8,0,0,1-.32-.38c-1,0-2.06-.08-3.09-.08a61.48,61.48,0,0,0-20.4,3.46l5,5a2.49,2.49,0,0,1,.54,2.73,2.5,2.5,0,0,1-4.22,2.26L34.51,8.35A2.49,2.49,0,0,1,34,5.62a2,2,0,0,1,0-.43c-1.14.51-2.26,1-3.35,1.6A2.49,2.49,0,0,1,29.89,9l-5.12,5.12a2.5,2.5,0,0,1-3.54,0,2,2,0,0,1-.29-.36,2,2,0,0,1-.36-.29s0-.05-.07-.08a58.21,58.21,0,0,0-5.11,4.68,2.5,2.5,0,0,1-.16,3.34l-5.13,5.13a2.5,2.5,0,0,1-1.9.72A53.43,53.43,0,0,0,.45,48.91l1.32,1.32a2.5,2.5,0,0,1,0,3.53A2.46,2.46,0,0,1,0,54.49c0,.4,0,.79,0,1.18,0,.76,0,1.52.06,2.27a2.5,2.5,0,0,1,2.18.69h0a2.52,2.52,0,0,1,0,3.54L.63,63.78A53.75,53.75,0,0,0,11.14,88.29l3.56,3.56a2.52,2.52,0,0,1,.7,1.41,58.05,58.05,0,0,0,6,5.4,2.48,2.48,0,0,1,3,.41l4.6,4.6c1.65.92,3.35,1.77,5.09,2.53a2.47,2.47,0,0,1,.71-1.44l5.12-5.13a2.5,2.5,0,0,1,3.54,3.54L38.59,108a61.85,61.85,0,0,0,40.59-.15Zm22.86-8.51a2.5,2.5,0,0,1-3.54,0l-5.12-5.12a2.5,2.5,0,0,1,3.53-3.54L97.24,91A2.5,2.5,0,0,1,97.24,94.54Zm-9.41-35.6a2.42,2.42,0,0,1,.61-1.06,2.5,2.5,0,0,1,3.54,0L97.11,63a2.51,2.51,0,0,1,.51,2.78,2.46,2.46,0,0,1-.62,1,2.5,2.5,0,0,1-3.54,0l-5.12-5.12A2.49,2.49,0,0,1,87.83,58.94Zm9.41,17.48-5.13,5.12A2.5,2.5,0,0,1,88.58,78l5.12-5.13a2.5,2.5,0,0,1,3.54,3.54ZM97.73,49,92.6,54.17a2.5,2.5,0,0,1-3.15.31,2.45,2.45,0,0,1-1.11-.64,2.49,2.49,0,0,1-.51-2.78A2.44,2.44,0,0,1,88.44,50l5.13-5.13a2.5,2.5,0,0,1,3.54,0c.1.11.19.22.28.34l.34.28A2.5,2.5,0,0,1,97.73,49Zm13.2,13.24-5.12,5.13A2.61,2.61,0,0,1,102,63.79l5.13-5.12a2.44,2.44,0,0,1,.56-.41,2.49,2.49,0,0,1,3.82,3A2.4,2.4,0,0,1,110.93,62.28Zm-9.4-25.91,5.13-5.13a2.46,2.46,0,0,1,1.84-.72,2.5,2.5,0,0,1,2.21,4.22l-5.12,5.13a3.25,3.25,0,0,1-4.06,0A2.49,2.49,0,0,1,101.53,36.37Zm0,7.87a2.52,2.52,0,0,1,3.54,0l.16.16a2.41,2.41,0,0,1,.68.48L111,50a2.48,2.48,0,0,1,.51,2.77,2.35,2.35,0,0,1-.62,1.06,2.49,2.49,0,0,1-3.53,0l-5.13-5.12a2.62,2.62,0,0,1-.46-.66l-.28-.28A2.5,2.5,0,0,1,101.53,44.24ZM88.12,22.77l5.12-5.12a2.5,2.5,0,0,1,3.54,3.53l-5.13,5.13a2.5,2.5,0,0,1-3.53-3.54Zm0,7.88a2.49,2.49,0,0,1,3.53,0l5.13,5.12a2.51,2.51,0,0,1,.58.92l.37.38A2.5,2.5,0,0,1,94.2,40.6l-5.13-5.12a2.51,2.51,0,0,1-.58-.92l-.37-.38A2.49,2.49,0,0,1,88.12,30.65Zm-13,31.84,5.12-5.13a2.49,2.49,0,0,1,4.17,2.44,2.52,2.52,0,0,1-.55,2.71l-5.13,5.13A2.49,2.49,0,0,1,74.6,65.2,2.48,2.48,0,0,1,75.15,62.49Zm.68-44.69a2.52,2.52,0,0,1,3.54,0l5.13,5.13A2.5,2.5,0,0,1,81,26.46l-5.13-5.12A2.52,2.52,0,0,1,75.83,17.8Zm-.69,19.27,5.12-5.13a2.23,2.23,0,0,1,.5-.37l.2-.21A2.5,2.5,0,0,1,84.5,34.9L79.37,40a2.43,2.43,0,0,1-.49.37l-.21.2a2.5,2.5,0,0,1-3.53-3.53Zm-.66,9a2.5,2.5,0,0,1,4.2-2.32l5.13,5.13a2.47,2.47,0,0,1,.65,2.35,1.88,1.88,0,0,1,.05.33,2.49,2.49,0,0,1-.62,2.47,2.52,2.52,0,0,1-3.54,0L75.23,49a2.47,2.47,0,0,1-.71-1.54A2.46,2.46,0,0,1,74.48,46.12Zm.24,26.23a2.5,2.5,0,0,1,3.54,0l5.13,5.12A2.5,2.5,0,1,1,79.85,81l-5.13-5.13A2.5,2.5,0,0,1,74.72,72.35Zm0,18.69,5.13-5.13a2.5,2.5,0,1,1,3.54,3.53l-5.13,5.13A2.5,2.5,0,0,1,74.72,91ZM20.51,17.88l0,0s0,0,0,0a2.49,2.49,0,0,1,3.53,0l5.13,5.12a2.52,2.52,0,0,1,0,3.54l0,0,0,0a2.5,2.5,0,0,1-3.53,0l-5.13-5.13A2.5,2.5,0,0,1,20.51,17.88Zm-13.93,13a2.5,2.5,0,0,1,3.53,0L15.24,36A2.56,2.56,0,0,1,16,37.53a2.5,2.5,0,0,1-3.79,3.23L7,35.64a2.45,2.45,0,0,1-.71-1.52A2.5,2.5,0,0,1,6.58,30.88ZM7,50.79l5.12-5.12A2.5,2.5,0,0,1,15.7,49.2l-5.13,5.13A2.5,2.5,0,1,1,7,50.79Zm9.13,24.94L11,80.86a2.5,2.5,0,1,1-3.53-3.54l5.12-5.12a2.5,2.5,0,0,1,3.54,0h0A2.5,2.5,0,0,1,16.17,75.73Zm0-8.43a2.52,2.52,0,0,1-3.54,0L7.51,62.17a2.5,2.5,0,0,1,0-3.54h0a2.5,2.5,0,0,1,3.53,0l5.13,5.13A2.52,2.52,0,0,1,16.17,67.3Zm4.34-30.73,5.13-5.12a2.49,2.49,0,0,1,4.2,1.23,2.49,2.49,0,0,1-.39,3l-5.12,5.12a2.5,2.5,0,0,1-4.21-1.23A2.5,2.5,0,0,1,20.51,36.57Zm.28,8.59a2.52,2.52,0,0,1,3.54,0l5.12,5.13a2.49,2.49,0,0,1,0,3.53h0a2.49,2.49,0,0,1-3.53,0L20.79,48.7A2.52,2.52,0,0,1,20.79,45.16Zm8.7,44.44-5.13,5.13a2.5,2.5,0,0,1-3.54-3.53L26,86.07a2.5,2.5,0,0,1,3.54,3.53Zm.18-7.87a2.49,2.49,0,0,1-3.53,0L21,76.6a2.5,2.5,0,1,1,3.53-3.53l5.13,5.13A2.49,2.49,0,0,1,29.67,81.73Zm0-18.13-5.13,5.13A2.5,2.5,0,1,1,21,65.2l5.13-5.13a2.5,2.5,0,0,1,3.53,3.53ZM47.12,18.46a2.49,2.49,0,0,1,3.53,0l5.13,5.13a2.5,2.5,0,0,1-3.53,3.53L47.12,22A2.49,2.49,0,0,1,47.12,18.46Zm0,18.69L52.25,32a2.49,2.49,0,0,1,2.94-.43,2.65,2.65,0,0,1,.89.57,2.5,2.5,0,0,1,0,3.54L51,40.83a2.49,2.49,0,0,1-2.94.42,2.38,2.38,0,0,1-.89-.57A2.49,2.49,0,0,1,47.12,37.15ZM33.19,23.59l5.12-5.13a2.5,2.5,0,0,1,2.3-.67,2.49,2.49,0,0,1,2.56,4.13L38,27a2.45,2.45,0,0,1-2.29.67,2.49,2.49,0,0,1-2.56-4.12Zm0,7.87a2.49,2.49,0,0,1,3.52,0,2.47,2.47,0,0,1,1.55.71l5.13,5.13a2.5,2.5,0,0,1-3.53,3.54,2.5,2.5,0,0,1-1.55-.71L33.19,35A2.49,2.49,0,0,1,33.19,31.46Zm10.2,17.8-5.13,5.13A2.55,2.55,0,1,1,34.48,51l5.13-5.13a2.4,2.4,0,0,1,.84-.55,2.48,2.48,0,0,1,2.94.43A2.5,2.5,0,0,1,43.39,49.26Zm0,45.47a2.5,2.5,0,0,1-3.54,0L34.76,89.6a2.5,2.5,0,0,1,3.53-3.53l5.13,5.13A2.5,2.5,0,0,1,43.42,94.73Zm.18-17.56-5.12,5.12a2.5,2.5,0,0,1-3.54,0h0a2.5,2.5,0,0,1,0-3.53l5.13-5.13a2.5,2.5,0,0,1,3.53,3.54Zm0-8.44a2.49,2.49,0,0,1-3.53,0L34.94,63.6a2.51,2.51,0,0,1-.71-1.52A2.5,2.5,0,0,1,38,58.85L43.14,64a2.4,2.4,0,0,1,.71,1.52A2.48,2.48,0,0,1,43.6,68.73Zm12.1,38.85a2.5,2.5,0,0,1-3.53,0L47,102.45a2.5,2.5,0,0,1,3.53-3.54L55.7,104A2.5,2.5,0,0,1,55.7,107.58Zm0-18.13-5.13,5.13A2.5,2.5,0,0,1,47,91l5.13-5.13a2.5,2.5,0,0,1,3.53,3.54Zm.82-8.75a2.5,2.5,0,0,1-3.54,0l-5.13-5.13A2.5,2.5,0,0,1,51.39,72l5.13,5.13A2.5,2.5,0,0,1,56.52,80.7ZM57.07,63,52,68.07a2.49,2.49,0,0,1-3.42.1,2.76,2.76,0,0,1-.68-.47,2.5,2.5,0,0,1,0-3.53L53,59a2.49,2.49,0,0,1,3.42-.1,2.54,2.54,0,0,1,.67.47A2.5,2.5,0,0,1,57.07,63Zm0-8.44a2.49,2.49,0,0,1-3.53,0l-.12-.12a2.45,2.45,0,0,1-.87-.56L47.42,48.7A2.5,2.5,0,0,1,51,45.16l.13.13a2.4,2.4,0,0,1,.87.56L57.07,51A2.49,2.49,0,0,1,57.07,54.51Zm.18-47-5.13,5.13a2.5,2.5,0,1,1-3.54-3.53l5.13-5.13a2.5,2.5,0,1,1,3.54,3.53ZM70.66,46.88A2.48,2.48,0,0,1,70,49.26l-5.12,5.13a2.52,2.52,0,0,1-3.54,0,2.45,2.45,0,0,1-.7-1.47,2.52,2.52,0,0,1,0-1.28,2.52,2.52,0,0,1,.55-2.71l5.13-5.13a2.52,2.52,0,0,1,3.54,0,2.48,2.48,0,0,1,.62,2.44A2.4,2.4,0,0,1,70.66,46.88Zm-1,56.13-5.12,5.13a2.68,2.68,0,1,1-4.06-3.5l5.13-5.13a2.68,2.68,0,1,1,4,3.5Zm0-8.43a2.5,2.5,0,0,1-3.53,0L61,89.45a2.53,2.53,0,0,1-.69-1.32,2.5,2.5,0,0,1,4-2.78l5.12,5.12a3.34,3.34,0,0,1,.18,4.11Zm.82-18.44-5.13,5.12a2.48,2.48,0,0,1-2.86.47A2.47,2.47,0,0,1,60.79,81a2.52,2.52,0,0,1,0-3.54l5.13-5.12a2.48,2.48,0,0,1,2.86-.47,2.47,2.47,0,0,1,1.67.72A2.5,2.5,0,0,1,70.45,76.14Zm0-8.44a2.5,2.5,0,0,1-3.54,0l-5.12-5.13a2.38,2.38,0,0,1-.39-.51L61.29,62a2.5,2.5,0,0,1-.63-2.44,2.5,2.5,0,0,1,4.09-2.71l5.13,5.13a2.47,2.47,0,0,1,.65,2.34A2.49,2.49,0,0,1,70.45,67.7Zm.28-28.44a2.49,2.49,0,0,1-4.25,1.57L61.35,35.7a2.5,2.5,0,0,1-.16-3.34,2.49,2.49,0,0,1,4.25-1.56l5.12,5.13A2.49,2.49,0,0,1,70.73,39.26Zm-.17-17.92-5.12,5.12a2.5,2.5,0,0,1-3.54-3.53L67,17.8a2.5,2.5,0,0,1,3.53,3.54Zm.19-7.88a2.5,2.5,0,0,1-3.54,0L62.09,8.34A2.5,2.5,0,0,1,65.62,4.8l5.13,5.13A2.49,2.49,0,0,1,70.75,13.46Z"/><path class="cls-2" d="M24.11,13.48a2.49,2.49,0,0,1-3.17.29,2,2,0,0,0,.29.36,2.5,2.5,0,0,0,3.54,0L29.89,9a2.49,2.49,0,0,0,.69-2.22l-.69.37a2.42,2.42,0,0,1-.65,1.19Z"/><path class="cls-2" d="M10.57,54.33,15.7,49.2a2.5,2.5,0,0,0-3.54-3.53L7,50.79a2.5,2.5,0,1,0,3.53,3.54Z"/><path class="cls-3" d="M1.77,50.23.45,48.91A51.41,51.41,0,0,0,0,54.49a2.46,2.46,0,0,0,1.74-.73A2.5,2.5,0,0,0,1.77,50.23Z"/><path class="cls-3" d="M15.24,39.55a2.52,2.52,0,0,1-3.54,0L6.58,34.42a2.34,2.34,0,0,1-.25-.3A2.45,2.45,0,0,0,7,35.64l5.12,5.12A2.5,2.5,0,0,0,16,37.53,2.51,2.51,0,0,1,15.24,39.55Z"/><path class="cls-2" d="M41.85,18.46a2.5,2.5,0,0,1,0,3.53l-5.13,5.13a2.51,2.51,0,0,1-1,.59A2.45,2.45,0,0,0,38,27l5.13-5.12a2.49,2.49,0,0,0-2.56-4.13,2.53,2.53,0,0,1,1.24.67Z"/><path class="cls-2" d="M20.94,13.77a2.49,2.49,0,0,0,3.17-.29l5.13-5.13a2.42,2.42,0,0,0,.65-1.19,59.72,59.72,0,0,0-9.38,6.24s0,.06.07.08A2,2,0,0,0,20.94,13.77Z"/><path class="cls-3" d="M24,17.88,29.17,23a2.5,2.5,0,0,1,0,3.5l0,0a2.52,2.52,0,0,0,0-3.54l-5.13-5.12a2.49,2.49,0,0,0-3.53,0s0,0,0,0A2.49,2.49,0,0,1,24,17.88Z"/><path class="cls-3" d="M39.78,12,34.65,6.9A2.47,2.47,0,0,1,34,5.62a2.49,2.49,0,0,0,.54,2.73l5.12,5.13a2.5,2.5,0,0,0,4.22-2.26,2.49,2.49,0,0,1-4.07.81Z"/><path class="cls-2" d="M20.79,37.29l5.13-5.13a2.5,2.5,0,0,1,3.53,0h0a2.72,2.72,0,0,1,.39.52,2.49,2.49,0,0,0-4.2-1.23l-5.13,5.12a2.5,2.5,0,0,0-.39,3A2.52,2.52,0,0,1,20.79,37.29Z"/><path class="cls-2" d="M10.11,26.55l5.13-5.13a2.5,2.5,0,0,0,.16-3.34,56.46,56.46,0,0,0-7.19,9.19A2.5,2.5,0,0,0,10.11,26.55Z"/><path class="cls-3" d="M6.58,34.42l5.12,5.13a2.49,2.49,0,0,0,4.25-2A2.56,2.56,0,0,0,15.24,36l-5.13-5.13a2.5,2.5,0,0,0-3.78,3.24A2.34,2.34,0,0,0,6.58,34.42Z"/><path class="cls-3" d="M25.64,26.55a2.5,2.5,0,0,0,3.53,0l0,0a2.5,2.5,0,0,0,0-3.5L24,17.88a2.49,2.49,0,0,0-3.49,0l0,0a2.5,2.5,0,0,0,0,3.54Z"/><path class="cls-2" d="M75.23,67.64a2.5,2.5,0,0,0,3.53,0l5.13-5.13a2.52,2.52,0,0,0,.55-2.71,2.55,2.55,0,0,1-.63,1.1L78.68,66a2.5,2.5,0,0,1-3.53,0,2.45,2.45,0,0,1-.55-.83A2.48,2.48,0,0,0,75.23,67.64Z"/><path class="cls-2" d="M60.76,51.82l-.1-.18a2.52,2.52,0,0,0,0,1.28A2.43,2.43,0,0,1,60.76,51.82Z"/><path class="cls-2" d="M70.66,46.88a2.4,2.4,0,0,0-.16-.64l0,.13A2.82,2.82,0,0,1,70.66,46.88Z"/><path class="cls-3" d="M61.13,60.23a2.55,2.55,0,0,1-.47-.72A2.5,2.5,0,0,0,61.29,62l.11.11A2.5,2.5,0,0,1,61.13,60.23Z"/><path class="cls-3" d="M83.8,53.6h0a2.5,2.5,0,0,1-3.54,0l-5.12-5.12a2.43,2.43,0,0,1-.62-1.07A2.47,2.47,0,0,0,75.23,49l5.12,5.13a2.52,2.52,0,0,0,3.54,0,2.49,2.49,0,0,0,.62-2.47A2.47,2.47,0,0,1,83.8,53.6Z"/><path class="cls-2" d="M69.88,47.34l-5.13,5.12a2.5,2.5,0,0,1-3.54,0,2.56,2.56,0,0,1-.45-.64,2.55,2.55,0,0,0,.59,2.57,2.52,2.52,0,0,0,3.54,0L70,49.26a2.48,2.48,0,0,0,.65-2.38,2.82,2.82,0,0,0-.19-.51A2.51,2.51,0,0,1,69.88,47.34Z"/><path class="cls-2" d="M55.78,35.56l-5.13,5.12a2.48,2.48,0,0,1-2.64.57A2.49,2.49,0,0,0,51,40.83l5.13-5.13a2.5,2.5,0,0,0,0-3.54,2.65,2.65,0,0,0-.89-.57,2.7,2.7,0,0,1,.59.43A2.5,2.5,0,0,1,55.78,35.56Z"/><path class="cls-3" d="M48.41,45.85a2.49,2.49,0,0,1,2.67-.56L51,45.16a2.5,2.5,0,0,0-3.53,3.54l5.13,5.13a2.45,2.45,0,0,0,.87.56l-5-5A2.52,2.52,0,0,1,48.41,45.85Z"/><path class="cls-3" d="M67,39.46,61.9,34.34a2.49,2.49,0,0,1-.71-2,2.5,2.5,0,0,0,.16,3.34l5.13,5.13a2.49,2.49,0,0,0,4.25-1.57,1.63,1.63,0,0,1-.17.2A2.49,2.49,0,0,1,67,39.46Z"/><path class="cls-2" d="M97.39,45.22a2.51,2.51,0,0,1,.23,2.44A2.56,2.56,0,0,1,97,48.72l-5.13,5.12a2.47,2.47,0,0,1-2.42.64,2.5,2.5,0,0,0,3.15-.31L97.73,49a2.5,2.5,0,0,0,0-3.54Z"/><path class="cls-2" d="M78.67,40.6l.21-.2a2.5,2.5,0,0,1-3-3.91l4.93-4.92a2.23,2.23,0,0,0-.5.37l-5.12,5.13a2.5,2.5,0,0,0,3.53,3.53Z"/><path class="cls-3" d="M75.14,48.48l5.12,5.12a2.5,2.5,0,0,0,3.54,0h0a2.47,2.47,0,0,0,.71-2,1.88,1.88,0,0,0-.05-.33,2.39,2.39,0,0,1-.65,1.18,2.5,2.5,0,0,1-3.54,0l-5.12-5.12a2.47,2.47,0,0,1-.67-1.22,2.46,2.46,0,0,0,0,1.29A2.43,2.43,0,0,0,75.14,48.48Z"/><path class="cls-3" d="M96.78,39.31a2.52,2.52,0,0,1-3.54,0l-4.75-4.75a2.51,2.51,0,0,0,.58.92L94.2,40.6a2.5,2.5,0,0,0,3.53-3.53l-.37-.38A2.51,2.51,0,0,1,96.78,39.31Z"/><path class="cls-2" d="M93.7,72.88,88.58,78a2.5,2.5,0,0,0,3.53,3.53l5.13-5.12a2.5,2.5,0,0,0-3.54-3.54Z"/><path class="cls-3" d="M92.11,85.88a2.5,2.5,0,0,0-3.53,3.54l5.12,5.12A2.5,2.5,0,0,0,97.24,91Z"/><path class="cls-3" d="M110.71,80.33a2.52,2.52,0,0,1-3.54,0L102,75.2a3.5,3.5,0,0,1-.24-.3,2.56,2.56,0,0,0,.71,1.52l5.13,5.12a2.49,2.49,0,0,0,2.69.56c.53-.94,1-1.9,1.51-2.87a2.48,2.48,0,0,0-.42-.92A2.51,2.51,0,0,1,110.71,80.33Z"/><path class="cls-2" d="M67.42,98.79a2.45,2.45,0,0,1,1.69.72,2.5,2.5,0,0,1,0,3.54L64,108.17a2.42,2.42,0,0,1-1.33.69,2.48,2.48,0,0,0,1.85-.72L69.63,103a2.5,2.5,0,0,0-2.21-4.22Z"/><path class="cls-2" d="M52.17,85.91,47,91a2.5,2.5,0,0,0,3.53,3.54l5.13-5.13a2.5,2.5,0,0,0-3.53-3.54Z"/><path class="cls-3" d="M50.57,98.91A2.5,2.5,0,0,0,47,102.45l5.13,5.13A2.5,2.5,0,0,0,55.7,104Z"/><path class="cls-3" d="M69.45,94a2.5,2.5,0,0,1-3.53,0l-5.13-5.13a2.49,2.49,0,0,1-.51-.75A2.53,2.53,0,0,0,61,89.45l5.13,5.13a2.5,2.5,0,0,0,4-2.79A2.48,2.48,0,0,1,69.45,94Z"/><path class="cls-2" d="M40.07,73.63l-5.13,5.13a2.5,2.5,0,0,0,0,3.53h0a2.5,2.5,0,0,0,3.54,0l5.12-5.12a2.5,2.5,0,0,0-3.53-3.54Z"/><path class="cls-2" d="M26.14,60.07,21,65.2a2.5,2.5,0,1,0,3.53,3.53l5.13-5.13a2.5,2.5,0,0,0-3.53-3.53Z"/><path class="cls-3" d="M24.54,73.07A2.5,2.5,0,1,0,21,76.6l5.13,5.13a2.5,2.5,0,0,0,3.53-3.53Z"/><path class="cls-3" d="M43.14,67.51h0a2.49,2.49,0,0,1-3.53,0l-5.13-5.12a3.76,3.76,0,0,1-.25-.31,2.51,2.51,0,0,0,.71,1.52l5.13,5.13a2.49,2.49,0,0,0,3.78-3.23A2.48,2.48,0,0,1,43.14,67.51Z"/><path class="cls-2" d="M101.76,64.63a2.35,2.35,0,0,1,.62-1.06l5.12-5.13a2,2,0,0,1,.23-.18,2.44,2.44,0,0,0-.56.41L102,63.79a2.48,2.48,0,0,0,1,4.14,2.44,2.44,0,0,1-.77-.52A2.5,2.5,0,0,1,101.76,64.63Z"/><path class="cls-3" d="M107.17,80.33a2.5,2.5,0,0,0,3.54-3.54l-5.13-5.12a2.49,2.49,0,0,0-3.78,3.23,3.5,3.5,0,0,0,.24.3Z"/><path class="cls-3" d="M115.39,61.26a2.41,2.41,0,0,0,.59.94l.84.85c0-.11,0-.21,0-.31l-1.4-1.4A.27.27,0,0,0,115.39,61.26Z"/><path class="cls-2" d="M111,58.44a2.49,2.49,0,0,0-3.31-.18,2,2,0,0,0-.23.18l-5.12,5.13a2.35,2.35,0,0,0-.62,1.06,2.54,2.54,0,0,1,.51-.76l5.13-5.13a2.49,2.49,0,0,1,4.15,2.48A2.49,2.49,0,0,0,111,58.44Z"/><path class="cls-2" d="M93.46,45.18a2.5,2.5,0,0,1,4.16,2.48,2.51,2.51,0,0,0-.23-2.44c-.09-.12-.18-.23-.28-.34a2.5,2.5,0,0,0-3.54,0L88.44,50a2.44,2.44,0,0,0-.61,1.05,2.32,2.32,0,0,1,.51-.75Z"/><path class="cls-3" d="M91.87,58.18,97,63.31a2.5,2.5,0,0,1,.62,2.48A2.51,2.51,0,0,0,97.11,63L92,57.88a2.5,2.5,0,0,0-3.54,0,2.42,2.42,0,0,0-.61,1.06,2.48,2.48,0,0,1,.51-.76A2.5,2.5,0,0,1,91.87,58.18Z"/><path class="cls-3" d="M110.65,50l.28.28a2.48,2.48,0,0,1,.62,2.47A2.48,2.48,0,0,0,111,50l-5.13-5.13a2.41,2.41,0,0,0-.68-.48l5,5A2.25,2.25,0,0,1,110.65,50Z"/><path class="cls-2" d="M69.11,103.05a2.5,2.5,0,0,0,0-3.54,2.45,2.45,0,0,0-1.69-.72,2.48,2.48,0,0,0-1.84.72l-5.13,5.13a2.5,2.5,0,0,0,2.21,4.22,2.42,2.42,0,0,0,1.33-.69Z"/><path class="cls-3" d="M77.92,99.51a2.5,2.5,0,0,0-3.54,3.54l4.8,4.79q2.32-.82,4.56-1.83a2.53,2.53,0,0,0-.69-1.37Z"/><path class="cls-2" d="M43.42,99.63a2.52,2.52,0,0,0-3.54,0l-5.12,5.13a2.47,2.47,0,0,0-.71,1.44c1.49.65,3,1.26,4.54,1.79l4.83-4.82A2.52,2.52,0,0,0,43.42,99.63Z"/><path class="cls-2" d="M26,86.07,20.82,91.2a2.5,2.5,0,0,0,3.54,3.53l5.13-5.13A2.5,2.5,0,0,0,26,86.07Z"/><path class="cls-3" d="M21.39,98.66a59.77,59.77,0,0,0,7.57,5l-4.6-4.6A2.48,2.48,0,0,0,21.39,98.66Z"/><path class="cls-3" d="M38.29,86.07a2.5,2.5,0,0,0-3.53,3.53l5.12,5.13a2.5,2.5,0,1,0,3.54-3.53Z"/><path class="cls-2" d="M56.4,58.94l.12.1a2.5,2.5,0,0,1,0,3.53L51.39,67.7a2.49,2.49,0,0,1-2.86.47,2.49,2.49,0,0,0,3.42-.1L57.07,63a2.5,2.5,0,0,0,0-3.54A2.54,2.54,0,0,0,56.4,58.94Z"/><path class="cls-2" d="M34.73,54.39a2.5,2.5,0,0,1,0-3.54l5.12-5.12a2.22,2.22,0,0,1,.6-.43,2.4,2.4,0,0,0-.84.55L34.48,51a2.49,2.49,0,0,0,2.94,4A2.5,2.5,0,0,1,34.73,54.39Z"/><path class="cls-3" d="M39.61,67.51a2.49,2.49,0,0,0,3.53,0h0a2.48,2.48,0,0,0,.71-2A2.4,2.4,0,0,0,43.14,64L38,58.85a2.5,2.5,0,0,0-3.79,3.23,3.76,3.76,0,0,0,.25.31Z"/><path class="cls-3" d="M52,45.85a2.4,2.4,0,0,0-.87-.56,2.49,2.49,0,0,0-2.67.56,2.52,2.52,0,0,0,0,3.54l5,5,.12.12A2.5,2.5,0,0,0,57.07,51Z"/><path class="cls-2" d="M40.45,45.3a2.22,2.22,0,0,0-.6.43l-5.12,5.12a2.5,2.5,0,0,0,3.53,3.54l5.13-5.13a2.5,2.5,0,0,0,0-3.53A2.48,2.48,0,0,0,40.45,45.3Z"/><path class="cls-2" d="M29.45,32.16a2.5,2.5,0,0,0-3.53,0l-5.13,5.13a2.5,2.5,0,0,0,3.54,3.53l5.12-5.12a2.49,2.49,0,0,0,.39-3,2.72,2.72,0,0,0-.39-.52Z"/><path class="cls-3" d="M25.92,53.82a2.49,2.49,0,0,0,3.53,0h0a2.49,2.49,0,0,0,0-3.53l-5.12-5.13a2.5,2.5,0,0,0-3.54,3.54Z"/><path class="cls-3" d="M41.85,36.59a2.5,2.5,0,0,1,0,3.53h0a2.49,2.49,0,0,1-2,.71,2.5,2.5,0,0,0,3.53-3.54l-5.13-5.13a2.47,2.47,0,0,0-1.55-.71h0Z"/><path class="cls-3" d="M11.14,88.29a55.85,55.85,0,0,0,4.26,5,2.52,2.52,0,0,0-.7-1.41Z"/><path class="cls-2" d="M101.85,90.92a2.5,2.5,0,0,0-.45,2.89,57,57,0,0,0,7.09-8.73,2.51,2.51,0,0,0-1.51.71Z"/><path class="cls-2" d="M16.17,72.2a2.5,2.5,0,0,0-3.54,0L7.51,77.32A2.5,2.5,0,1,0,11,80.86l5.13-5.13a2.5,2.5,0,0,0,0-3.53Z"/><path class="cls-2" d="M2.24,58.63h0a2.5,2.5,0,0,0-2.18-.69,51.1,51.1,0,0,0,.57,5.84l1.61-1.61A2.52,2.52,0,0,0,2.24,58.63Z"/><path class="cls-3" d="M11,58.63a2.5,2.5,0,0,0-3.53,0h0a2.5,2.5,0,0,0,0,3.54l5.12,5.13a2.5,2.5,0,1,0,3.54-3.54Z"/><path class="cls-2" d="M68.78,71.88a2.54,2.54,0,0,1,.67.47,2.49,2.49,0,0,1,0,3.53L64.33,81a2.5,2.5,0,0,1-1.87.72,2.48,2.48,0,0,0,2.86-.47l5.13-5.12a2.5,2.5,0,0,0,0-3.54A2.47,2.47,0,0,0,68.78,71.88Z"/><path class="cls-2" d="M51.39,67.7l5.13-5.13a2.5,2.5,0,0,0,0-3.53l-.12-.1A2.49,2.49,0,0,0,53,59l-5.13,5.13a2.5,2.5,0,0,0,0,3.53,2.76,2.76,0,0,0,.68.47A2.49,2.49,0,0,0,51.39,67.7Z"/><path class="cls-3" d="M51.39,72a2.5,2.5,0,0,0-3.54,3.53L53,80.7a2.5,2.5,0,0,0,3.54-3.53Z"/><path class="cls-3" d="M69.88,65.46a2.5,2.5,0,0,1-3.54,0l-5.13-5.12a1,1,0,0,1-.08-.11,2.5,2.5,0,0,0,.27,1.83,2.38,2.38,0,0,0,.39.51l5.12,5.13a2.49,2.49,0,0,0,3.62-3.43A2.42,2.42,0,0,1,69.88,65.46Z"/><path class="cls-2" d="M78.26,94.57l5.13-5.13a2.5,2.5,0,1,0-3.54-3.53L74.72,91a2.5,2.5,0,0,0,3.54,3.53Z"/><path class="cls-2" d="M64.33,81l5.12-5.13a2.49,2.49,0,0,0,0-3.53,2.54,2.54,0,0,0-.67-.47,2.48,2.48,0,0,0-2.86.47l-5.13,5.12a2.52,2.52,0,0,0,0,3.54,2.47,2.47,0,0,0,1.67.72A2.5,2.5,0,0,0,64.33,81Z"/><path class="cls-3" d="M65.92,94a2.5,2.5,0,0,0,3.53-3.54l-5.12-5.12a2.5,2.5,0,0,0-3.54,3.53Z"/><path class="cls-3" d="M79.85,81a2.5,2.5,0,1,0,3.54-3.54l-5.13-5.12a2.5,2.5,0,0,0-3.54,3.53Z"/><path class="cls-2" d="M93,98.85l-5.08,5.09a59.21,59.21,0,0,0,8.22-5.41A2.5,2.5,0,0,0,93,98.85Z"/><path class="cls-2" d="M78.68,66l5.13-5.13a2.55,2.55,0,0,0,.63-1.1,2.49,2.49,0,0,0-4.17-2.44l-5.12,5.13a2.48,2.48,0,0,0-.55,2.71,2.45,2.45,0,0,0,.55.83A2.5,2.5,0,0,0,78.68,66Z"/><path class="cls-2" d="M69.88,43.8a2.52,2.52,0,0,0-3.54,0l-5.13,5.13a2.52,2.52,0,0,0-.55,2.71l.1.18a2.56,2.56,0,0,0,.45.64,2.5,2.5,0,0,0,3.54,0l5.13-5.12a2.51,2.51,0,0,0,.59-1l0-.13A2.48,2.48,0,0,0,69.88,43.8Z"/><path class="cls-3" d="M61.21,60.34l5.13,5.12a2.5,2.5,0,0,0,3.54,0,2.42,2.42,0,0,0,.65-1.19,2.47,2.47,0,0,0-.65-2.34L64.75,56.8a2.5,2.5,0,0,0-4.09,2.71,2.55,2.55,0,0,0,.47.72A1,1,0,0,0,61.21,60.34Z"/><path class="cls-3" d="M75.15,47.34l5.12,5.12a2.5,2.5,0,0,0,3.54,0,2.39,2.39,0,0,0,.65-1.18,2.47,2.47,0,0,0-.65-2.35L78.68,43.8a2.5,2.5,0,0,0-4.2,2.32A2.47,2.47,0,0,0,75.15,47.34Z"/><path class="cls-2" d="M110.93,58.74a2.5,2.5,0,0,0-3.53,0l-5.13,5.13a2.54,2.54,0,0,0-.51.76,2.5,2.5,0,0,0,.51,2.78,2.44,2.44,0,0,0,.77.52,2.53,2.53,0,0,0,2.77-.52l5.12-5.13a2.4,2.4,0,0,0,.62-1.06A2.51,2.51,0,0,0,110.93,58.74Z"/><path class="cls-2" d="M91.87,53.84,97,48.72a2.56,2.56,0,0,0,.62-1.06,2.5,2.5,0,0,0-4.16-2.48l-5.12,5.13a2.32,2.32,0,0,0-.51.75,2.49,2.49,0,0,0,.51,2.78,2.51,2.51,0,0,0,3.53,0Z"/><path class="cls-3" d="M93.46,66.84a2.5,2.5,0,0,0,3.54,0,2.46,2.46,0,0,0,.62-1A2.5,2.5,0,0,0,97,63.31l-5.13-5.13a2.5,2.5,0,0,0-3.53,0,2.54,2.54,0,0,0,0,3.54Z"/><path class="cls-3" d="M110.93,50.31l-.28-.28a2.47,2.47,0,0,1-.46,2.87h0a2.49,2.49,0,0,1-3.53,0l-4.85-4.84a2.62,2.62,0,0,0,.46.66l5.13,5.12a2.49,2.49,0,0,0,3.53,0,2.35,2.35,0,0,0,.62-1.06A2.48,2.48,0,0,0,110.93,50.31Z"/><path class="cls-2" d="M110.19,31.24a2.5,2.5,0,0,1,0,3.54l-5.12,5.12a2.42,2.42,0,0,1-1.33.69,2.45,2.45,0,0,0,1.85-.72l5.12-5.13a2.5,2.5,0,0,0-2.21-4.22,2.47,2.47,0,0,1,1.69.72Z"/><path class="cls-2" d="M91.65,26.31l5.13-5.13a2.5,2.5,0,0,0-3.54-3.53l-5.12,5.12a2.5,2.5,0,0,0,3.53,3.54Z"/><path class="cls-3" d="M88.49,34.56l4.75,4.75a2.5,2.5,0,0,0,3.54-3.54l-5.13-5.12a2.5,2.5,0,0,0-3.53,3.53Z"/><path class="cls-3" d="M101.87,20.61a2.49,2.49,0,0,1-.51-.75,2.49,2.49,0,0,0,.69,1.32l5.13,5.13A2.46,2.46,0,0,0,109,27l-.38-.57a2.46,2.46,0,0,1-1.62-.72Z"/><path class="cls-2" d="M76,10.49A2.5,2.5,0,1,0,79.56,14L84.68,8.9A2.5,2.5,0,0,0,85.12,6c-.92-.44-1.86-.87-2.81-1.27a2.49,2.49,0,0,0-1.16.65Z"/><path class="cls-2" d="M65.62.46l.06-.05C64.39.26,63.09.14,61.77.08a2.8,2.8,0,0,0,.32.38A2.49,2.49,0,0,0,65.62.46Z"/><path class="cls-3" d="M65.62,4.8a2.5,2.5,0,0,0-3.53,3.54l5.12,5.12a2.5,2.5,0,0,0,3.54-3.53Z"/><path class="cls-3" d="M115.46,57.81a2.49,2.49,0,0,0-.07,3.45.27.27,0,0,1,.07.08l1.4,1.4a52.89,52.89,0,0,0,.45-5.66A2.51,2.51,0,0,0,115.46,57.81Z"/><path class="cls-2" d="M115.46,53.47a2.48,2.48,0,0,0,1.85.72,50.24,50.24,0,0,0-.46-5.65l-1.39,1.39A2.52,2.52,0,0,0,115.46,53.47Z"/><path class="cls-2" d="M103.74,40.59a2.42,2.42,0,0,0,1.33-.69l5.12-5.12a2.5,2.5,0,0,0,0-3.54h0a2.52,2.52,0,0,0-3.53,0l-5.13,5.13a2.5,2.5,0,0,0,2.21,4.22Z"/><path class="cls-3" d="M101.81,48.06l4.85,4.84a2.49,2.49,0,0,0,3.53,0h0a2.47,2.47,0,0,0,.46-2.87,2.25,2.25,0,0,0-.46-.66l-5-5-.16-.16a2.5,2.5,0,0,0-3.54,3.54Z"/><path class="cls-2" d="M75.83,40a2.52,2.52,0,0,0,3,.37,2.43,2.43,0,0,0,.49-.37L84.5,34.9A2.5,2.5,0,0,0,81,31.36l-.2.21-4.93,4.92A2.52,2.52,0,0,0,75.83,40Z"/><path class="cls-2" d="M67,17.8,61.9,22.93a2.5,2.5,0,0,0,3.54,3.53l5.12-5.12A2.5,2.5,0,0,0,67,17.8Z"/><path class="cls-3" d="M65.44,30.8a2.49,2.49,0,0,0-4.25,1.56,2.49,2.49,0,0,0,.71,2L67,39.46a2.49,2.49,0,0,0,3.53,0,1.63,1.63,0,0,0,.17-.2,2.49,2.49,0,0,0-.17-3.33Z"/><path class="cls-3" d="M81,26.46a2.5,2.5,0,0,0,3.54-3.53L79.37,17.8a2.5,2.5,0,1,0-3.54,3.54Z"/><path class="cls-2" d="M48,41.25a2.48,2.48,0,0,0,2.64-.57l5.13-5.12a2.5,2.5,0,0,0,0-3.54,2.7,2.7,0,0,0-.59-.43,2.49,2.49,0,0,0-2.94.43l-5.13,5.13a2.49,2.49,0,0,0,0,3.53A2.38,2.38,0,0,0,48,41.25Z"/><path class="cls-2" d="M35.75,27.71a2.51,2.51,0,0,0,1-.59L41.85,22a2.5,2.5,0,0,0,0-3.53h0a2.53,2.53,0,0,0-1.24-.67,2.5,2.5,0,0,0-2.3.67l-5.12,5.13a2.49,2.49,0,0,0,2.56,4.12Z"/><path class="cls-3" d="M39.86,40.83a2.49,2.49,0,0,0,2-.71h0a2.5,2.5,0,0,0,0-3.53l-5.13-5.13h0A2.5,2.5,0,0,0,33.19,35l5.12,5.13A2.5,2.5,0,0,0,39.86,40.83Z"/><path class="cls-3" d="M52.25,27.12a2.5,2.5,0,0,0,3.53-3.53l-5.13-5.13A2.5,2.5,0,0,0,47.12,22Z"/><path class="cls-2" d="M53.71,3.93,48.58,9.06a2.5,2.5,0,1,0,3.54,3.53l5.13-5.13a2.5,2.5,0,1,0-3.54-3.53Z"/><path class="cls-3" d="M34.65,6.9,39.78,12a2.5,2.5,0,0,0,3.53-3.54l-5-5q-2.22.78-4.35,1.73a2,2,0,0,0,0,.43A2.47,2.47,0,0,0,34.65,6.9Z"/><path class="cls-3" d="M96.44,13.08A58.82,58.82,0,0,0,90.6,9l3.46,3.46A2.48,2.48,0,0,0,96.44,13.08Z"/><path class="cls-3" d="M101.36,19.86a2.49,2.49,0,0,0,.51.75L107,25.74a2.46,2.46,0,0,0,1.62.72,56.13,56.13,0,0,0-7.14-8.85A2.48,2.48,0,0,0,101.36,19.86Z"/></g></g></svg>