<svg xmlns="http://www.w3.org/2000/svg" xmlns:xlink="http://www.w3.org/1999/xlink" viewBox="0 0 967.44 263.5"><defs><style>.cls-1{fill:none;}.cls-2{clip-path:url(#clip-path);}.cls-3{fill:url(#linear-gradient);}</style><clipPath id="clip-path" transform="translate(2.76 -2.15)"><path class="cls-1" d="M0,2.15H17.08L27.17,48.92h.24L36.56,2.15H52.05L61.33,48.4h.23L71.19,2.15H88.73L70,79.72H53.87L46.42,45q-1.23-5.69-2.05-11h-.24q-1.47,9-2.11,12l-7.4,33.64H18.78Zm91.81,0h36v16.5H109.59V33h15.79V49H109.59V63.16H127.9V79.72H91.81Zm43.63,0h18.07q15.8,0,22.72,6.13a19.94,19.94,0,0,1,6.92,15.6q0,10.23-10.09,16.45,11.44,4.47,11.44,17,0,10-7.1,16.21t-18.72,6.16H135.44ZM153.22,17V33.76q11.91-.28,11.91-8.19,0-4.71-2.84-6.57T153.22,17Zm0,30.8V64.61q6.75-.1,10.12-2.06t3.38-6.42q0-8.31-12-8.31Zm37,30.45V60.2q8.44,4.88,14.2,4.88a7.37,7.37,0,0,0,5.28-1.83,6.37,6.37,0,0,0,1.94-4.85A7,7,0,0,0,210.08,54a29.55,29.55,0,0,0-5.37-4.94q-9.21-7-13.35-13a23.08,23.08,0,0,1-4.14-13.39q0-10,6.4-16.39T210.17,0a37.31,37.31,0,0,1,14.91,3.2V20.57q-7.94-4.3-12.86-4.3a7.8,7.8,0,0,0-5.19,1.6,5.41,5.41,0,0,0-1.91,4.38q0,4.89,8.86,11a53,53,0,0,1,10.71,10.14,23,23,0,0,1,5.43,15.13A21.74,21.74,0,0,1,223,75.16q-7.1,6.6-18,6.59A34.21,34.21,0,0,1,190.22,78.27ZM237,2.15h17.78V79.72H237Zm22.8,0h42.43V19.87H290V79.72H272V19.87H259.81Zm47,0h36v16.5h-18.2V33h15.79V49H324.56V63.16h18.31V79.72H306.78Zm66.6,0H390q17.25,0,26.23,9.73t9,28.45q0,14.18-4.43,22.89a27.28,27.28,0,0,1-12.38,12.61,39.53,39.53,0,0,1-17.58,3.89H373.38Zm17.78,16.5V63.16q8.1-.69,11.45-5.66T406,41.14a47.82,47.82,0,0,0-1.17-11.42,16.49,16.49,0,0,0-3.49-7.2,9.83,9.83,0,0,0-4.52-3.11A28.28,28.28,0,0,0,391.16,18.65Zm39.52-16.5h36v16.5h-18.2V33h15.79V49H448.46V63.16h18.31V79.72H430.68Zm36.41,0h18.55l9.68,34.28a143.9,143.9,0,0,1,3.76,17.38h.23a93.78,93.78,0,0,1,1.94-10.41L512,2.15h19L507.53,79.72H491Zm67,0h36v16.5H551.92V33H567.7V49H551.92V63.16h18.31V79.72h-36.1Zm43.63,0h17.78V61.77h14.09V79.72H577.76Zm61.88,79.49q-14.21,0-21.65-10.78t-7.46-31.12q0-18.76,7.49-29.25T638.88,0q14.26,0,21.8,10.52t7.54,30q0,19.52-7.42,30.3T639.64,81.64Zm-.64-64q-9.63,0-9.63,22.37,0,14.4,2.44,19.23c1.62,3.22,4,4.82,7.07,4.82q5,0,7.66-4.82t2.67-18.88Q649.21,17.61,639,17.61ZM674.94,2.15h22q11.63,0,18.67,6.57t7,17.31q0,11.32-7.13,17.75T695.77,50.2h-3V79.72H674.94ZM692.72,17V35.33c4-.08,6.93-.83,8.83-2.27s2.85-3.7,2.85-6.8q0-5-2.76-7.06T692.72,17ZM735.29,2.15h22.48q4.82,25.1,7.57,43.17l1.94-12q1.17-7,2.52-13.71l3.46-17.43h23l8.92,77.57H787.52l-4.75-53.34-11,53.34h-12l-11.5-53.46-4.58,53.46H726.84Zm77.37,0h36v16.5h-18.2V33h15.79V49H830.44V63.16h18.31V79.72H812.66Zm43.63,0h18l22.59,44.74-.64-8.37V2.15H914V79.72H895.73l-22.13-44,.47,9.64v34.4H856.29Zm62.17,0h42.43V19.87H948.63V79.72h-18V19.87H918.46ZM58.69,171.72H41.18l-2.83-12.27H20.56l-2.95,12.27H.44L20.12,98.25H39ZM35.12,146.24q-3.78-16.4-5.67-31.21h-.22q-2,15.25-5.61,31.21ZM52,98.25H68.22l9.56,44.3H78l8.67-44.3h14.68l8.78,43.81h.22l9.12-43.81h16.62L118.3,171.72H103.07L96,138.86q-1.17-5.38-1.94-10.4h-.23q-1.38,8.53-2,11.4l-7,31.86h-15Zm87,0h34.08v15.63H155.85v13.54h15v15.24h-15V156h17.34v15.68H139Zm41.33,72.09V153.23q8,4.62,13.45,4.62a7,7,0,0,0,5-1.73,6,6,0,0,0,1.83-4.6,6.67,6.67,0,0,0-1.47-4.12,27.6,27.6,0,0,0-5.08-4.68q-8.73-6.61-12.65-12.3a21.92,21.92,0,0,1-3.92-12.69q0-9.53,6.06-15.52t15.67-6a35.26,35.26,0,0,1,14.12,3v16.45q-7.5-4.06-12.17-4.07a7.42,7.42,0,0,0-4.92,1.52,5.14,5.14,0,0,0-1.81,4.15q0,4.62,8.4,10.4A51,51,0,0,1,213,137.3a21.73,21.73,0,0,1,5.14,14.33,20.6,20.6,0,0,1-6.72,15.77q-6.74,6.24-17.07,6.25A32.23,32.23,0,0,1,180.33,170.34Zm67.89,3.2q-13.46,0-20.51-10.21t-7.06-29.47q0-17.78,7.09-27.71t19.76-9.94q13.5,0,20.65,10t7.14,28.46q0,18.48-7,28.7T248.22,173.54Zm-.61-60.65q-9.12,0-9.12,21.19,0,13.65,2.31,18.21c1.53,3.05,3.77,4.57,6.7,4.57,3.15,0,5.56-1.52,7.25-4.57s2.53-9,2.53-17.88Q257.28,112.89,247.61,112.89ZM287,98.25h21.29q4.56,23.77,7.17,40.89l1.83-11.39c.75-4.44,1.54-8.77,2.4-13L323,98.25h21.74l8.45,73.47H336.51L332,121.2l-10.39,50.52h-11.4l-10.89-50.63L295,171.72H279Zm73.29,0H394.4v15.63H377.17v13.54h14.95v15.24H377.17V156h17.34v15.68H360.33Zm57.52,0H458V115H446.42v56.69H429.35V115h-11.5Zm44,0h17.29V150a8.2,8.2,0,0,0,1.94,5.75,7.51,7.51,0,0,0,10.59-.13,9.12,9.12,0,0,0,2-6.22V98.25h17.17v48.21q0,9.85-2.61,15.79a17.59,17.59,0,0,1-7.7,8.73q-5.08,2.78-14.2,2.78-13.46,0-19-6.83t-5.51-23.06Zm52.5,0h40.19V115H543v56.69H525.89V115h-11.5Zm67.67,75.29q-13.45,0-20.51-10.21t-7.06-29.47q0-17.78,7.09-27.71t19.76-9.94q13.5,0,20.65,10t7.14,28.46q0,18.48-7,28.7T582.06,173.54Zm-.61-60.65q-9.12,0-9.12,21.19,0,13.65,2.31,18.21c1.53,3.05,3.77,4.57,6.7,4.57,3.15,0,5.56-1.52,7.25-4.57s2.53-9,2.53-17.88Q591.12,112.89,581.45,112.89Zm34-14.64h19.62q11.89,0,18.79,6t6.89,16.46a22,22,0,0,1-2.61,10.32,17.13,17.13,0,0,1-7.62,7.51L664,171.72H646.23l-13.62-33.46h-.28v33.46H615.49Zm16.84,14.2v17.44q11.17-.21,11.17-7.76,0-5.11-2.58-7.32C639.2,113.35,636.33,112.56,632.33,112.45ZM668,98.25h16.85v73.47H668Zm79.07,73.47H729.54l-2.83-12.27H708.92L706,171.72H688.8l19.67-73.47h18.9Zm-23.57-25.48q-3.78-16.4-5.67-31.21h-.22q-2,15.25-5.62,31.21Zm25.93-48h16.84v56.46h13.34v17H749.41Zm35.43,72.09V153.23q8,4.62,13.45,4.62a7,7,0,0,0,5-1.73,6.05,6.05,0,0,0,1.84-4.6,6.68,6.68,0,0,0-1.48-4.12,27.27,27.27,0,0,0-5.08-4.68q-8.73-6.61-12.65-12.3A21.92,21.92,0,0,1,782,117.73q0-9.53,6.06-15.52t15.68-6a35.3,35.3,0,0,1,14.12,3v16.45q-7.51-4.06-12.18-4.07a7.44,7.44,0,0,0-4.92,1.52,5.13,5.13,0,0,0-1.8,4.15q0,4.62,8.39,10.4a50.77,50.77,0,0,1,10.14,9.61,21.74,21.74,0,0,1,5.15,14.33,20.61,20.61,0,0,1-6.73,15.77q-6.72,6.24-17.07,6.25A32.23,32.23,0,0,1,784.84,170.34ZM22.06,217.49H5.77a93.41,93.41,0,0,1,.7-12.93,22,22,0,0,1,2.89-8.29,15.32,15.32,0,0,1,6.73-5.77,24.6,24.6,0,0,1,10.75-2.18q10.29,0,15.79,5.34t5.5,15.41A33.55,33.55,0,0,1,46,220.22a76.27,76.27,0,0,1-6.34,13.12l-9.11,15.41h15v15H3.16l24.24-41q4.44-7.38,4.44-13.43a8.49,8.49,0,0,0-1.33-4.95,3.94,3.94,0,0,0-3.34-1.93q-3.17,0-4.14,2.51t-1,9.87Zm54.22-29.17q12.06,0,18.32,9.85t6.25,29q0,18.66-6.37,28.56a20.39,20.39,0,0,1-18.2,9.91,20.87,20.87,0,0,1-17.87-9.28q-6.64-9.27-6.64-30,0-18.16,6.39-28.13t17.9-10Zm-8.34,38q0,23.55,8.23,23.55,4.44,0,6.42-5.2t2-16.54q0-12.5-2-18.19t-6.53-5.69Q67.95,204.23,67.94,226.3Zm53.44-8.81H105.1a93.69,93.69,0,0,1,.69-12.93,22,22,0,0,1,2.89-8.29,15.38,15.38,0,0,1,6.73-5.77,24.6,24.6,0,0,1,10.75-2.18q10.29,0,15.79,5.34t5.5,15.41a33.55,33.55,0,0,1-2.11,11.15A76.27,76.27,0,0,1,139,233.34l-9.11,15.41h15v15H102.48l24.24-41q4.44-7.38,4.45-13.43a8.49,8.49,0,0,0-1.34-4.95,3.94,3.94,0,0,0-3.33-1.93q-3.18,0-4.14,2.51t-1,9.87Zm49.66,0H154.76a93.69,93.69,0,0,1,.69-12.93,22.19,22.19,0,0,1,2.89-8.29,15.43,15.43,0,0,1,6.73-5.77,24.6,24.6,0,0,1,10.75-2.18q10.29,0,15.79,5.34t5.5,15.41A33.55,33.55,0,0,1,195,220.22a76.27,76.27,0,0,1-6.34,13.12l-9.11,15.41H194.5v15H152.14l24.24-41q4.44-7.38,4.45-13.43a8.49,8.49,0,0,0-1.34-4.95,3.94,3.94,0,0,0-3.33-1.93q-3.18,0-4.14,2.51t-1,9.87Z"/></clipPath><linearGradient id="linear-gradient" y1="131.75" x2="967.44" y2="131.75" gradientUnits="userSpaceOnUse"><stop offset="0" stop-color="#fff"/><stop offset="0" stop-color="#ee513b"/><stop offset="0.36" stop-color="#ee0b3b"/><stop offset="0.69" stop-color="#5e2f3b"/><stop offset="1" stop-color="#ee513b"/><stop offset="1"/></linearGradient></defs><g id="Layer_2" data-name="Layer 2"><g id="Layer_1-2" data-name="Layer 1"><g class="cls-2"><rect class="cls-3" width="967.44" height="263.5"/></g></g></g></svg>