<svg xmlns="http://www.w3.org/2000/svg" viewBox="0 0 584.46 580.24"><defs><style>.cls-1,.cls-3{fill:#d3d3d3;}.cls-2,.cls-3{opacity:0.44;}</style></defs><g id="Layer_2" data-name="Layer 2"><g id="Layer_1-2" data-name="Layer 1"><path class="cls-1" d="M582.89,156.81l-8.55-9.63a4.24,4.24,0,0,0-6.15-.25h0a4.62,4.62,0,0,0-.27,6.38l8.54,9.62a4.26,4.26,0,0,0,6.16.25h0A4.63,4.63,0,0,0,582.89,156.81Z"/><path class="cls-1" d="M557.9,132,548,123.79a4.25,4.25,0,0,0-6.13.66h0a4.64,4.64,0,0,0,.69,6.35l9.87,8.25a4.26,4.26,0,0,0,6.13-.66h0A4.64,4.64,0,0,0,557.9,132Z"/><path class="cls-1" d="M552.36,146.42l-9.77,8.38a4.64,4.64,0,0,0-.59,6.36h0a4.24,4.24,0,0,0,6.13.57l9.76-8.38a4.62,4.62,0,0,0,.6-6.35h0A4.24,4.24,0,0,0,552.36,146.42Z"/><path class="cls-1" d="M573.62,139.16l9.4-8.79a4.64,4.64,0,0,0,.32-6.38h0a4.24,4.24,0,0,0-6.15-.31l-9.4,8.79a4.63,4.63,0,0,0-.32,6.38h0A4.26,4.26,0,0,0,573.62,139.16Z"/><path class="cls-1" d="M115.59,572.67l-8.54-9.62a4.24,4.24,0,0,0-6.15-.26h0a4.62,4.62,0,0,0-.27,6.38l8.54,9.62a4.26,4.26,0,0,0,6.16.26h0A4.63,4.63,0,0,0,115.59,572.67Z"/><path class="cls-1" d="M90.61,547.9l-9.87-8.25a4.26,4.26,0,0,0-6.13.66h0a4.64,4.64,0,0,0,.68,6.35l9.88,8.25a4.25,4.25,0,0,0,6.12-.66h0A4.63,4.63,0,0,0,90.61,547.9Z"/><path class="cls-1" d="M85.07,562.28l-9.77,8.38a4.63,4.63,0,0,0-.59,6.36h0a4.24,4.24,0,0,0,6.13.57l9.76-8.38a4.62,4.62,0,0,0,.6-6.35h0A4.24,4.24,0,0,0,85.07,562.28Z"/><path class="cls-1" d="M106.33,555l9.39-8.79a4.63,4.63,0,0,0,.33-6.38h0a4.26,4.26,0,0,0-6.16-.31l-9.39,8.79a4.63,4.63,0,0,0-.32,6.38h0A4.26,4.26,0,0,0,106.33,555Z"/><polygon class="cls-1" points="379.31 83.89 384.58 89.11 389.15 83.1 383.88 77.88 379.31 83.89"/><polygon class="cls-1" points="399.03 82.26 393.79 77.08 389.22 83.09 394.49 88.31 399.03 82.33 399 82.3 399.03 82.26"/><polygon class="cls-1" points="399.03 82.26 399 82.3 399.03 82.33 403.6 76.31 403.57 76.29 399.03 82.26"/><polygon class="cls-1" points="385.27 100.35 389.85 94.34 384.58 89.11 380 95.13 385.27 100.35"/><polygon class="cls-1" points="369.46 84.76 369.49 84.72 364.26 79.54 359.68 85.55 364.95 90.77 369.5 84.8 369.46 84.76"/><polygon class="cls-1" points="369.5 84.8 374.74 89.98 379.31 83.97 374.04 78.75 369.49 84.72 369.46 84.76 369.5 84.8"/><polygon class="cls-1" points="364.95 90.78 367.13 92.92 364.95 90.77 364.95 90.78"/><polygon class="cls-1" points="374.74 89.98 370.2 95.95 375.48 101.16 380.01 95.21 374.74 89.98"/><polygon class="cls-1" points="378.8 72.56 384.08 77.78 388.65 71.77 383.38 66.55 378.8 72.56"/><polygon class="cls-1" points="398.53 70.93 393.29 65.75 388.72 71.76 393.99 76.98 398.53 71.01 398.5 70.97 398.53 70.93"/><polygon class="cls-1" points="398.53 70.93 398.5 70.97 398.53 71.01 403.73 76.15 408.3 70.14 403.07 64.96 398.53 70.93"/><polygon class="cls-1" points="349.27 75.02 354.54 80.24 359.12 74.23 353.84 69.01 349.27 75.02"/><polygon class="cls-1" points="368.99 73.39 363.76 68.21 359.18 74.22 364.45 79.44 369 73.47 368.96 73.43 368.99 73.39"/><polygon class="cls-1" points="368.99 73.39 368.96 73.43 369 73.47 374.23 78.66 378.81 72.64 373.54 67.42 368.99 73.39"/><polygon class="cls-1" points="378.18 61.32 383.45 66.54 388.02 60.53 382.75 55.3 378.18 61.32"/><polygon class="cls-1" points="397.9 59.69 392.66 54.5 388.09 60.52 393.36 65.74 397.9 59.77 397.87 59.73 397.9 59.69"/><polygon class="cls-1" points="397.9 59.69 397.87 59.73 397.9 59.77 403.14 64.95 407.71 58.94 402.44 53.72 397.9 59.69"/><polygon class="cls-1" points="417.36 58.08 412.37 53.14 407.8 59.16 412.84 64.16 417.42 58.14 417.36 58.08 417.36 58.08"/><polygon class="cls-1" points="417.36 58.08 417.36 58.08 417.42 58.14 421.99 52.12 421.93 52.07 417.36 58.08"/><polygon class="cls-1" points="358.49 62.98 353.21 57.76 348.64 63.78 353.91 69 358.49 62.98"/><polygon class="cls-1" points="368.37 62.23 368.33 62.19 368.36 62.15 363.13 56.96 358.55 62.98 363.82 68.2 368.37 62.23"/><polygon class="cls-1" points="368.37 62.23 373.6 67.41 378.18 61.4 372.91 56.17 368.36 62.15 368.33 62.19 368.37 62.23"/><polygon class="cls-1" points="342.76 58.53 338.25 64.47 343.53 69.67 348.04 63.75 342.76 58.53"/><polygon class="cls-1" points="384.51 4.35 380.13 0 375.55 5.96 379.96 10.33 384.51 4.35"/><polygon class="cls-1" points="380.03 10.32 375.45 16.34 380.73 21.56 385.3 15.55 380.03 10.32"/><polygon class="cls-1" points="390.64 20.76 395.13 14.86 389.86 9.64 385.37 15.54 390.64 20.76"/><polygon class="cls-1" points="380.73 21.56 376.15 27.58 381.42 32.8 386 26.78 380.73 21.56"/><polygon class="cls-1" points="395.85 25.99 395.88 25.95 390.64 20.76 386.06 26.78 391.34 32 395.88 26.02 395.85 25.99"/><polygon class="cls-1" points="395.85 25.99 395.88 26.02 401.12 31.21 405.63 25.27 400.36 20.05 395.88 25.95 395.85 25.99"/><polygon class="cls-1" points="381.42 32.8 376.85 38.82 382.12 44.04 386.69 38.02 381.42 32.8"/><polygon class="cls-1" points="396.54 37.23 396.57 37.19 391.34 32 386.76 38.02 392.03 43.24 396.58 37.26 396.54 37.23"/><polygon class="cls-1" points="396.54 37.23 396.58 37.26 401.81 42.45 406.39 36.43 401.12 31.21 396.57 37.19 396.54 37.23"/><polygon class="cls-1" points="387.39 49.26 382.12 44.04 377.54 50.05 382.81 55.27 387.39 49.26"/><polygon class="cls-1" points="397.27 48.42 392.03 43.24 387.46 49.25 392.73 54.48 397.27 48.5 397.24 48.47 397.27 48.42"/><polygon class="cls-1" points="397.24 48.47 397.27 48.5 402.51 53.69 407.08 47.67 401.81 42.45 397.27 48.42 397.24 48.47"/><polygon class="cls-1" points="375.46 16.42 370.95 11.95 366.34 17.94 370.88 22.43 375.46 16.42"/><polygon class="cls-1" points="366.35 28.48 366.31 28.45 366.34 28.41 361.77 23.88 357.17 29.87 361.8 34.46 366.35 28.48"/><polygon class="cls-1" points="366.31 28.45 366.35 28.48 371.58 33.67 376.16 27.65 370.88 22.43 366.34 28.41 366.31 28.45"/><polygon class="cls-1" points="357.16 40.48 352.54 35.9 347.93 41.89 352.58 46.5 357.16 40.48"/><polygon class="cls-1" points="367 39.69 367.04 39.65 361.8 34.46 357.23 40.48 362.5 45.7 367.04 39.72 367 39.69"/><polygon class="cls-1" points="367 39.69 367.04 39.72 372.28 44.91 376.85 38.89 371.58 33.67 367.04 39.65 367 39.69"/><polygon class="cls-1" points="353.28 57.73 357.85 51.72 352.58 46.5 348.01 52.51 353.28 57.73"/><polygon class="cls-1" points="367.73 50.88 362.5 45.7 357.92 51.71 363.19 56.94 367.74 50.96 367.7 50.92 367.73 50.88"/><polygon class="cls-1" points="367.7 50.92 367.74 50.96 372.97 56.15 377.55 50.13 372.28 44.91 367.73 50.88 367.7 50.92"/><rect class="cls-1" x="408.41" y="24.32" height="7.42" transform="translate(127.51 325.82) rotate(-50.6)"/><polygon class="cls-1" points="416.03 35.58 416.03 35.58 411.04 30.64 406.47 36.66 411.74 41.88 416.32 35.86 416.03 35.58"/><polygon class="cls-1" points="416.73 46.82 411.74 41.88 407.17 47.89 412.44 53.12 417.01 47.1 416.73 46.82 416.73 46.82"/><polygon class="cls-1" points="416.03 35.58 416.32 35.86 421.3 40.8 421.3 40.8 416.03 35.58 416.03 35.58 416.03 35.58"/><polygon class="cls-1" points="416.73 46.82 416.73 46.82 417.01 47.1 422 52.04 426.57 46.02 421.79 41.28 421.3 40.8 416.73 46.82"/><polygon class="cls-1" points="347.4 52.48 343.08 48.2 338.48 54.19 342.83 58.5 347.4 52.48"/><g class="cls-2"><path class="cls-1" d="M295.59,267.37l-2.47,24.9L290,291.14l1.46-12.52c.38-3.09.79-6.14,1.18-8.49l-.08,0c-1.19,2.13-2.89,4.59-4.72,7.25l-7.23,10.4-3.05-1.11,1.39-12.57c.36-3,.72-5.87,1.23-8.4l-.07,0c-1.36,2.34-2.91,4.65-4.65,7.23l-7.18,10.42-3-1.1L280,261.72l3.08,1.11-1.42,12.91a74.39,74.39,0,0,1-1.19,8l.06,0A68.73,68.73,0,0,1,285,277l7.52-10.7Z"/><path class="cls-1" d="M259.11,292c-1,3.24-2.15,7.16-3.19,10l.09,0c1.74-2.36,3.73-4.9,6-7.61l8-9.61,2.23.8-.22,12.21c-.08,3.62-.25,6.87-.59,9.8l.08,0c1.11-2.82,2.63-6.56,4.09-9.9l4.15-9.58,2.8,1-9.84,22.24L269,310.05l.12-12.45c.07-3.13.21-5.92.48-8.51l-.09,0c-1.44,2.1-3.14,4.32-5.19,6.82l-8.07,9.57-3.77-1.37,6.84-23.32,2.9,1.05Z"/></g><line class="cls-3" x1="293.69" y1="306.36" x2="257.82" y2="264.89"/><circle class="cls-3" cx="275.45" cy="285.88" r="27.42"/><path class="cls-1" d="M97.45,127.36a4.41,4.41,0,0,1-1.56,1,12,12,0,0,1-2.84,4.4c-6.14,6-16.06,1.77-19.7-4.85-3.78-6.87-3.11-18.46,5.54-21.27a16,16,0,0,1,13.42,1.67c4.1,1.15,7,4.48,6.93,9.73a4.77,4.77,0,0,1-.07.76,19,19,0,0,1,7.2-5.06,20.83,20.83,0,1,0-2.89,20.13A13.59,13.59,0,0,1,97.45,127.36Z"/><path class="cls-1" d="M31.9,342.29a30.62,30.62,0,0,1,22.7,9.3,30.49,30.49,0,0,1,9.4,22.7c0,9-3,16.5-9.1,22.5a32.06,32.06,0,0,1-23,9.5,30.84,30.84,0,0,1-22.5-9.4A30.74,30.74,0,0,1,0,374.29a31.12,31.12,0,0,1,9.4-22.7A30.65,30.65,0,0,1,31.9,342.29Zm.2,5.8a25.14,25.14,0,0,0-18.5,7.7,25.66,25.66,0,0,0-7.8,18.5,25.11,25.11,0,0,0,7.8,18.4,25.33,25.33,0,0,0,18.5,7.8,25.72,25.72,0,0,0,18.6-7.8,24.43,24.43,0,0,0,7.5-18.3,25.36,25.36,0,0,0-7.7-18.6A24.55,24.55,0,0,0,32.1,348.09Zm8.5,18.3v13.1H37V395H27v-15.6H23.3v-13a2.05,2.05,0,0,1,2.1-2.1H38.5a2,2,0,0,1,1.4.6A1.8,1.8,0,0,1,40.6,366.39Zm-13.1-8.3q0-4.5,4.5-4.5t4.5,4.5q0,4.5-4.5,4.5T27.5,358.09Z"/><path class="cls-1" d="M482.78,434.94a31.92,31.92,0,0,1,32.1,32c0,9-3,16.5-9.1,22.5a32.06,32.06,0,0,1-23,9.5,32.27,32.27,0,0,1-31.9-32,31.12,31.12,0,0,1,9.4-22.7A30.65,30.65,0,0,1,482.78,434.94Zm-24.7,23.4a23.89,23.89,0,0,0-1.4,8.6,25.11,25.11,0,0,0,7.8,18.4,26.08,26.08,0,0,0,37.1-.1,24.56,24.56,0,0,0,4.4-5.6l-12.1-5.4a7.63,7.63,0,0,1-3.1,4.9,10.25,10.25,0,0,1-5.7,2.2v4.9h-3.7v-4.9a14.67,14.67,0,0,1-9.7-3.8l4.4-4.5a10.42,10.42,0,0,0,7.1,2.9,5.07,5.07,0,0,0,2.8-.7,2.68,2.68,0,0,0,1.2-2.5,2.32,2.32,0,0,0-.9-1.9l-3.1-1.3-3.8-1.7-5.1-2.2Zm24.9-17.7a25.14,25.14,0,0,0-18.5,7.7,29.8,29.8,0,0,0-3.5,4.3l12.2,5.5a7.06,7.06,0,0,1,3-4,10.05,10.05,0,0,1,5.2-1.7v-4.9h3.7v4.9a14.1,14.1,0,0,1,8,3l-4.2,4.3a9.17,9.17,0,0,0-5.5-1.9,6,6,0,0,0-2.7.6,2,2,0,0,0-1.2,1.9,1.33,1.33,0,0,0,.3.8l4.1,1.8,2.8,1.3,5.1,2.3,16.4,7.3a31,31,0,0,0,.8-6.9,25.2,25.2,0,0,0-7.7-18.6A24.54,24.54,0,0,0,483,440.64Z"/></g></g></svg>